<?xml version="1.0" encoding="UTF-8"?>
<svg width="202px" height="48px" viewBox="0 0 202 48" version="1.1" xmlns="http://www.w3.org/2000/svg" xmlns:xlink="http://www.w3.org/1999/xlink">
    <!-- Generator: Sketch 59.1 (86144) - https://sketch.com -->
    <title>Desktop/CTA/Buy</title>
    <desc>Created with Sketch.</desc>
    <g id="Desktop/CTA/Buy" stroke="none" stroke-width="1" fill="none" fill-rule="evenodd">
        <g id="BUY" fill="#FFFFFF">
            <path d="M177.799997,0 C190.944374,-2.41458285e-15 201.599997,10.6556228 201.599997,23.7999996 C201.599997,36.9443764 190.944374,47.5999992 177.799997,47.5999992 L23.7999996,47.5999992 C10.6556228,47.5999992 1.6097219e-15,36.9443764 0,23.7999996 C-1.6097219e-15,10.6556228 10.6556228,2.41458285e-15 23.7999996,0 L177.799997,0 Z M97.9230953,13.5939944 L94.46582,13.5939944 L94.46582,23.79834 C94.46582,24.9707032 94.6352944,26.0234376 94.9742429,26.956543 C95.3131914,27.8896485 95.7897133,28.6652425 96.4038083,29.2833252 C97.0179032,29.901408 97.7576088,30.3759358 98.6229244,30.7069092 C99.4882401,31.0378825 100.443278,31.2033691 101.488037,31.2033691 C102.96346,31.2033691 104.23352,30.9003093 105.298217,30.2941895 C106.362915,29.6880696 107.172404,28.8307293 107.726684,27.722168 C108.280965,26.6136068 108.558105,25.3056642 108.558105,23.79834 L108.558105,13.5939944 L105.112792,13.5939944 L105.112792,23.571045 C105.112792,24.9348146 104.777832,26.0094808 104.10791,26.795044 C103.437988,27.5806072 102.564697,27.9733887 101.488037,27.9733887 C100.746337,27.9733887 100.102335,27.7799886 99.5560299,27.3931885 C99.0097245,27.0063885 98.6009925,26.4840089 98.3298336,25.8260499 C98.0586747,25.1680909 97.9230953,24.4164227 97.9230953,23.571045 L97.9230953,13.5939944 Z M85.1945799,13.5939944 L78.9140625,13.5939944 L78.9140625,31 L86.1157225,31 C87.048828,31 87.8762613,30.8803711 88.5980223,30.6411133 C89.3197833,30.4018555 89.9099526,30.0668945 90.36853,29.6362305 C90.8271075,29.2055664 91.1740313,28.6991375 91.4093015,28.1169434 C91.6445718,27.5347493 91.7622068,26.892741 91.7622068,26.1909181 C91.7622068,25.0504559 91.459147,24.0994061 90.8530271,23.3377687 C90.2469073,22.5761313 89.3855792,22.0557455 88.2690428,21.7766115 L88.2690428,21.7287599 C88.8751626,21.4974774 89.377604,21.1684979 89.776367,20.7418215 C90.1751299,20.315145 90.4582517,19.8605551 90.6257322,19.378052 C90.7932127,18.8955488 90.8769529,18.3831382 90.8769529,17.8408205 C90.8769529,16.4611006 90.3924558,15.4083662 89.4234617,14.6826175 C88.4544676,13.9568687 87.0448404,13.5939944 85.1945799,13.5939944 Z M114.431884,13.5939944 L110.48413,13.5939944 L116.238281,23.355713 L116.238281,31 L119.719482,31 L119.719482,23.355713 L125.509521,13.5939944 L121.525878,13.5939944 L118.020751,19.9462893 L117.9729,19.9462893 L114.431884,13.5939944 Z M85.1108397,23.4992677 C86.1077472,23.4992677 86.8673907,23.700643 87.3897703,24.1033937 C87.9121499,24.5061444 88.1733397,25.058431 88.1733397,25.760254 C88.1733397,26.2467449 88.0417479,26.6554769 87.7785643,26.9864503 C87.5153807,27.3174236 87.1545001,27.5646566 86.6959227,27.7281495 C86.2373453,27.8916424 85.6970213,27.9733887 85.074951,27.9733887 L82.2995605,27.9733887 L82.2995605,23.4992677 L85.1108397,23.4992677 Z M84.536621,16.6445315 C85.1905924,16.6445315 85.73291,16.7302656 86.1635741,16.9017336 C86.5942381,17.0732017 86.9052733,17.306478 87.0966795,17.6015627 C87.2880858,17.8966474 87.3837889,18.2515464 87.3837889,18.66626 C87.3837889,19.1288251 87.2581785,19.5176191 87.0069578,19.8326418 C86.7557371,20.1476645 86.4387205,20.3749594 86.055908,20.5145265 C85.6730956,20.6540937 85.2424315,20.7238771 84.7639159,20.7238771 L82.2995605,20.7238771 L82.2995605,16.6445315 L84.536621,16.6445315 Z" id="Combined-Shape"></path>
        </g>
    </g>
</svg>