<?xml version="1.0" encoding="UTF-8"?>
<svg width="186px" height="44px" viewBox="0 0 186 44" version="1.1" xmlns="http://www.w3.org/2000/svg" xmlns:xlink="http://www.w3.org/1999/xlink">
    <!-- Generator: Sketch 59.1 (86144) - https://sketch.com -->
    <title>Desktop/CTA/Closed Sofa</title>
    <desc>Created with Sketch.</desc>
    <g id="Desktop/CTA/Closed-Sofa" stroke="none" stroke-width="1" fill="none" fill-rule="evenodd">
        <path d="M163.575984,7.10542736e-15 C175.66881,-2.22141604e-15 185.471982,9.80317216 185.471982,21.8959979 C185.471982,33.9888236 175.66881,43.7919957 163.575984,43.7919957 L21.8959979,43.7919957 C9.80317216,43.7919957 1.43589491e-13,33.9888236 1.42108547e-13,21.8959979 C1.40627603e-13,9.80317216 9.80317216,9.3268434e-15 21.8959979,7.10542736e-15 L163.575984,7.10542736e-15 Z M53.9208984,13.8374997 C52.7607422,13.8374997 51.6829428,14.0380206 50.6875,14.4390622 C49.6920572,14.8401038 48.8487955,15.3915363 48.1577148,16.0933591 C47.4666342,16.795182 46.925944,17.6402341 46.5356445,18.6285154 C46.1453451,19.6167966 45.9501953,20.6838538 45.9501953,21.8296872 C45.9501953,22.9755206 46.1453451,24.0443683 46.5356445,25.0362302 C46.925944,26.0280921 47.4666342,26.8749347 48.1577148,27.5767576 C48.8487955,28.2785804 49.690267,28.8300128 50.6821289,29.2310544 C51.6739908,29.632096 52.7535807,29.8326169 53.9208984,29.8326169 C55.0595703,29.8326169 56.1176758,29.6374671 57.0952148,29.2471677 C58.0727539,28.8568683 58.912435,28.3161781 59.6142578,27.6250974 C60.3160807,26.9340167 60.8675131,26.0889646 61.2685547,25.0899411 C61.6695963,24.0909177 61.8701172,23.0041663 61.8701172,21.8296872 C61.8701172,20.6552081 61.6695963,19.5702472 61.2685547,18.5748044 C60.8675131,17.5793617 60.3160807,16.7360999 59.6142578,16.0450193 C58.912435,15.3539386 58.0727539,14.8132484 57.0952148,14.422949 C56.1176758,14.0326495 55.0595703,13.8374997 53.9208984,13.8374997 Z M69.2285156,13.8374997 C68.3046875,13.8518226 67.4596354,14.0541339 66.6933594,14.4444333 C65.9270834,14.8347328 65.32194,15.3700519 64.8779297,16.0503904 C64.4339193,16.7307288 64.2119141,17.482682 64.2119141,18.3062497 C64.2119141,18.7144529 64.2602539,19.0993812 64.3569336,19.4610349 C64.4536133,19.8226886 64.5789389,20.1413734 64.7329102,20.4170896 C64.8868815,20.6928058 65.0874023,20.954199 65.3344727,21.2012693 C65.581543,21.4483396 65.8304037,21.6596027 66.0810547,21.8350583 C66.3317057,22.010514 66.6289062,22.1859698 66.9726562,22.3614255 C67.3164062,22.5368812 67.6350912,22.6819007 67.9287109,22.7964841 C68.2223307,22.9110675 68.5589193,23.0363929 68.9384766,23.1724607 C69.3610025,23.3156898 69.7011719,23.4392249 69.9589844,23.5430661 C70.2167969,23.6469073 70.4656576,23.7650714 70.7055664,23.8975583 C70.9454752,24.0300453 71.1280924,24.1643226 71.253418,24.3003904 C71.3787435,24.4364581 71.4772135,24.5940101 71.5488281,24.7730466 C71.6204428,24.9520831 71.65625,25.1561847 71.65625,25.3853513 C71.65625,25.7147784 71.5738932,26.0012367 71.4091797,26.2447263 C71.2444662,26.4882159 70.9920248,26.6815753 70.6518555,26.8248044 C70.3116861,26.9680335 69.8981119,27.0396482 69.4111328,27.0396482 C69.0960287,27.0396482 68.7737631,27.0002601 68.4443359,26.9214841 C68.1149088,26.8427081 67.7836914,26.7245441 67.4506836,26.5669919 C67.1176758,26.4094398 66.784668,26.2053382 66.4516602,25.9546872 C66.1186523,25.7040363 65.8089193,25.4139972 65.5224609,25.0845701 L63.6640625,27.372656 C64.4661459,28.1962238 65.355957,28.8121091 66.3334961,29.2203122 C67.3110352,29.6285154 68.3190104,29.8326169 69.3574219,29.8326169 C69.8873697,29.8326169 70.4065756,29.7771156 70.9150391,29.666113 C71.4235025,29.5551105 71.9194336,29.3724933 72.402832,29.1182615 C72.8862305,28.8640296 73.3105469,28.556087 73.6757812,28.1944333 C74.0410156,27.8327796 74.3346354,27.3780271 74.5566406,26.8301755 C74.7786459,26.282324 74.8896484,25.678971 74.8896484,25.0201169 C74.8896484,24.3755857 74.7893881,23.8098304 74.5888672,23.3228513 C74.2666016,22.5422523 73.6184896,21.8869788 72.6445312,21.357031 C72.2220053,21.1278644 71.3590494,20.7590492 70.0556641,20.2505857 C69.6474609,20.0930335 69.3234049,19.962337 69.0834961,19.8584958 C68.8435873,19.7546546 68.6036783,19.6364906 68.3637695,19.5040036 C68.1238607,19.3715167 67.9430338,19.2426105 67.8212891,19.1172849 C67.6995443,18.9919593 67.6028646,18.8505206 67.53125,18.6929685 C67.4596354,18.5354163 67.4238281,18.3599607 67.4238281,18.1666013 C67.4309896,17.6796222 67.6082357,17.2964841 67.9555664,17.0171872 C68.3028971,16.7378904 68.7522787,16.5982419 69.3037109,16.5982419 C70.3206381,16.5982419 71.4557291,17.1102863 72.7089844,18.1343747 L74.4921875,15.8033201 C72.8736979,14.4712888 71.1191406,13.8160154 69.2285156,13.8374997 Z M117.12793,13.8374997 C116.204102,13.8518226 115.359049,14.0541339 114.592773,14.4444333 C113.826497,14.8347328 113.221354,15.3700519 112.777344,16.0503904 C112.333333,16.7307288 112.111328,17.482682 112.111328,18.3062497 C112.111328,18.7144529 112.159668,19.0993812 112.256348,19.4610349 C112.353027,19.8226886 112.478353,20.1413734 112.632324,20.4170896 C112.786296,20.6928058 112.986816,20.954199 113.233887,21.2012693 C113.480957,21.4483396 113.729818,21.6596027 113.980469,21.8350583 C114.23112,22.010514 114.52832,22.1859698 114.87207,22.3614255 C115.21582,22.5368812 115.534505,22.6819007 115.828125,22.7964841 C116.121745,22.9110675 116.458333,23.0363929 116.837891,23.1724607 C117.260417,23.3156898 117.600586,23.4392249 117.858398,23.5430661 C118.116211,23.6469073 118.365072,23.7650714 118.60498,23.8975583 C118.844889,24.0300453 119.027506,24.1643226 119.152832,24.3003904 C119.278158,24.4364581 119.376628,24.5940101 119.448242,24.7730466 C119.519857,24.9520831 119.555664,25.1561847 119.555664,25.3853513 C119.555664,25.7147784 119.473307,26.0012367 119.308594,26.2447263 C119.14388,26.4882159 118.891439,26.6815753 118.55127,26.8248044 C118.2111,26.9680335 117.797526,27.0396482 117.310547,27.0396482 C116.995443,27.0396482 116.673177,27.0002601 116.34375,26.9214841 C116.014323,26.8427081 115.683105,26.7245441 115.350098,26.5669919 C115.01709,26.4094398 114.684082,26.2053382 114.351074,25.9546872 C114.018066,25.7040363 113.708333,25.4139972 113.421875,25.0845701 L111.563477,27.372656 C112.36556,28.1962238 113.255371,28.8121091 114.23291,29.2203122 C115.210449,29.6285154 116.218424,29.8326169 117.256836,29.8326169 C117.786784,29.8326169 118.30599,29.7771156 118.814453,29.666113 C119.322917,29.5551105 119.818848,29.3724933 120.302246,29.1182615 C120.785645,28.8640296 121.209961,28.556087 121.575195,28.1944333 C121.94043,27.8327796 122.234049,27.3780271 122.456055,26.8301755 C122.67806,26.282324 122.789062,25.678971 122.789062,25.0201169 C122.789062,24.3755857 122.688802,23.8098304 122.488281,23.3228513 C122.166016,22.5422523 121.517904,21.8869788 120.543945,21.357031 C120.121419,21.1278644 119.258463,20.7590492 117.955078,20.2505857 C117.546875,20.0930335 117.222819,19.962337 116.98291,19.8584958 C116.743001,19.7546546 116.503092,19.6364906 116.263184,19.5040036 C116.023275,19.3715167 115.842448,19.2426105 115.720703,19.1172849 C115.598958,18.9919593 115.502279,18.8505206 115.430664,18.6929685 C115.359049,18.5354163 115.323242,18.3599607 115.323242,18.1666013 C115.330404,17.6796222 115.50765,17.2964841 115.85498,17.0171872 C116.202311,16.7378904 116.651693,16.5982419 117.203125,16.5982419 C118.220052,16.5982419 119.355143,17.1102863 120.608398,18.1343747 L122.391602,15.8033201 C120.773112,14.4712888 119.018555,13.8160154 117.12793,13.8374997 Z M132.736328,13.8374997 C131.576172,13.8374997 130.498372,14.0380206 129.50293,14.4390622 C128.507487,14.8401038 127.664225,15.3915363 126.973145,16.0933591 C126.282064,16.795182 125.741374,17.6402341 125.351074,18.6285154 C124.960775,19.6167966 124.765625,20.6838538 124.765625,21.8296872 C124.765625,22.9755206 124.960775,24.0443683 125.351074,25.0362302 C125.741374,26.0280921 126.282064,26.8749347 126.973145,27.5767576 C127.664225,28.2785804 128.505697,28.8300128 129.497559,29.2310544 C130.489421,29.632096 131.56901,29.8326169 132.736328,29.8326169 C133.875,29.8326169 134.933105,29.6374671 135.910645,29.2471677 C136.888184,28.8568683 137.727865,28.3161781 138.429688,27.6250974 C139.13151,26.9340167 139.682943,26.0889646 140.083984,25.0899411 C140.485026,24.0909177 140.685547,23.0041663 140.685547,21.8296872 C140.685547,20.6552081 140.485026,19.5702472 140.083984,18.5748044 C139.682943,17.5793617 139.13151,16.7360999 138.429688,16.0450193 C137.727865,15.3539386 136.888184,14.8132484 135.910645,14.422949 C134.933105,14.0326495 133.875,13.8374997 132.736328,13.8374997 Z M26.0449219,13.8374997 C25.0423178,13.8374997 24.1131185,13.9735675 23.2573242,14.2457029 C22.4015299,14.5178382 21.660319,14.8991859 21.0336914,15.3897458 C20.4070639,15.8803058 19.8699545,16.4585935 19.4223633,17.1246091 C18.9747721,17.7906247 18.639974,18.5264646 18.4179688,19.3321286 C18.1959635,20.1377927 18.0849609,20.9882159 18.0849609,21.8833982 C18.0849609,22.8931638 18.2246094,23.8277341 18.5039062,24.6871091 C18.7832031,25.5464841 19.1681315,26.2859046 19.6586914,26.9053708 C20.1492514,27.524837 20.7275391,28.0565753 21.3935547,28.5005857 C22.0595703,28.944596 22.7864584,29.2740232 23.5742188,29.4888669 C24.3619791,29.7037107 25.1855469,29.8111326 26.0449219,29.8111326 C27.3554688,29.8111326 28.54069,29.5407874 29.6005859,29.0000974 C30.6604818,28.4594073 31.5485025,27.741471 32.2646484,26.8462888 L29.9980469,24.9019529 C29.5182291,25.5035154 28.9345703,25.9833331 28.2470703,26.341406 C27.5595703,26.6994788 26.8255209,26.8785154 26.0449219,26.8785154 C25.1282553,26.8785154 24.3100586,26.665462 23.590332,26.2393552 C22.8706055,25.8132484 22.3120117,25.2206378 21.9145508,24.4615232 C21.5170898,23.7024085 21.3183594,22.8430335 21.3183594,21.8833982 C21.3183594,21.4393878 21.3577475,21.0168617 21.4365234,20.6158201 C21.5152994,20.2147784 21.6298828,19.844173 21.7802734,19.5040036 C21.9306641,19.1638343 22.1114908,18.8505206 22.3227539,18.5640622 C22.534017,18.2776038 22.7739258,18.0251624 23.0424805,17.806738 C23.3110352,17.5883136 23.6028646,17.4021156 23.9179688,17.2481443 C24.2330729,17.094173 24.5696615,16.9777992 24.9277344,16.8990232 C25.2858072,16.8202472 25.6582031,16.7808591 26.0449219,16.7808591 C26.8183594,16.7808591 27.5488281,16.9652667 28.2363281,17.3340818 C28.9238281,17.7028968 29.5110678,18.1809242 29.9980469,18.7681638 L32.2646484,16.8345701 C31.7132162,16.1542316 31.0812174,15.5848956 30.3686523,15.1265622 C29.6560873,14.6682288 28.9417318,14.3388019 28.2255859,14.138281 C27.50944,13.9377601 26.7825521,13.8374997 26.0449219,13.8374997 Z M37.7753906,14.0201169 L34.6816406,14.0201169 L34.6816406,29.6499997 L44.7255859,29.6499997 L44.7255859,26.8892576 L37.7753906,26.8892576 L37.7753906,14.0201169 Z M87.4902344,14.0201169 L77.5,14.0201169 L77.5,29.6499997 L87.9521484,29.6499997 L87.9521484,26.8892576 L80.5507812,26.8892576 L80.5507812,23.2691404 L86.1152344,23.2691404 L86.1152344,20.5406247 L80.5507812,20.5406247 L80.5507812,16.7916013 L87.4902344,16.7916013 L87.4902344,14.0201169 Z M95.8691406,14.0201169 L90.7021484,14.0201169 L90.7021484,29.6499997 L95.9335938,29.6499997 C97.172526,29.6499997 98.296875,29.460221 99.3066406,29.0806638 C100.316406,28.7011066 101.163249,28.1693683 101.847168,27.485449 C102.531087,26.8015296 103.057454,25.9797523 103.42627,25.0201169 C103.795085,24.0604816 103.979492,23.0077472 103.979492,21.8619138 C103.979492,20.7160804 103.787923,19.6579749 103.404785,18.6875974 C103.021647,17.7172198 102.480957,16.8900714 101.782715,16.2061521 C101.084473,15.5222328 100.228678,14.9869138 99.215332,14.6001951 C98.2019857,14.2134763 97.0865885,14.0201169 95.8691406,14.0201169 Z M153.844727,14.0201169 L143.478516,14.0201169 L143.478516,29.6499997 L146.529297,29.6499997 L146.529297,23.7310544 L152.630859,23.7310544 L152.630859,20.9703122 L146.529297,20.9703122 L146.529297,16.7916013 L153.844727,16.7916013 L153.844727,14.0201169 Z M162.395508,14.0201169 L159.40918,14.0201169 L153.619141,29.6499997 L156.852539,29.6499997 L157.916016,26.5240232 L163.910156,26.5240232 L164.973633,29.6499997 L168.207031,29.6499997 L162.395508,14.0201169 Z M53.9316406,16.7271482 C54.8196615,16.7271482 55.6235352,16.9455726 56.3432617,17.3824216 C57.0629883,17.8192706 57.6287435,18.4279945 58.0405273,19.2085935 C58.4523111,19.9891925 58.6582031,20.8628904 58.6582031,21.8296872 C58.6582031,22.5529945 58.5382486,23.2333331 58.2983398,23.8707029 C58.058431,24.5080726 57.7290039,25.0523435 57.3100586,25.5035154 C56.8911133,25.9546872 56.3898111,26.3091794 55.8061523,26.5669919 C55.2224935,26.8248044 54.5976562,26.9537107 53.9316406,26.9537107 C53.014974,26.9537107 52.1914062,26.7245441 51.4609375,26.2662107 C50.7304688,25.8078773 50.1665039,25.1902015 49.769043,24.4131833 C49.371582,23.6361652 49.1728516,22.7749997 49.1728516,21.8296872 C49.1728516,20.8915363 49.371582,20.0339515 49.769043,19.2569333 C50.1665039,18.4799152 50.7304688,17.8640296 51.4609375,17.4092771 C52.1914062,16.9545245 53.014974,16.7271482 53.9316406,16.7271482 Z M132.74707,16.7271482 C133.635091,16.7271482 134.438965,16.9455726 135.158691,17.3824216 C135.878418,17.8192706 136.444173,18.4279945 136.855957,19.2085935 C137.267741,19.9891925 137.473633,20.8628904 137.473633,21.8296872 C137.473633,22.5529945 137.353678,23.2333331 137.11377,23.8707029 C136.873861,24.5080726 136.544434,25.0523435 136.125488,25.5035154 C135.706543,25.9546872 135.205241,26.3091794 134.621582,26.5669919 C134.037923,26.8248044 133.413086,26.9537107 132.74707,26.9537107 C131.830404,26.9537107 131.006836,26.7245441 130.276367,26.2662107 C129.545898,25.8078773 128.981934,25.1902015 128.584473,24.4131833 C128.187012,23.6361652 127.988281,22.7749997 127.988281,21.8296872 C127.988281,20.8915363 128.187012,20.0339515 128.584473,19.2569333 C128.981934,18.4799152 129.545898,17.8640296 130.276367,17.4092771 C131.006836,16.9545245 131.830404,16.7271482 132.74707,16.7271482 Z M95.9335938,16.7916013 C96.8574219,16.7916013 97.688151,17.0082355 98.4257812,17.4415036 C99.1634115,17.8747718 99.7381185,18.4781247 100.149902,19.2515622 C100.561686,20.0249997 100.767578,20.8951169 100.767578,21.8619138 C100.767578,22.5708982 100.647624,23.2333331 100.407715,23.8492185 C100.167806,24.4651038 99.8312174,24.9968421 99.3979492,25.4444333 C98.964681,25.8920245 98.4329428,26.2447263 97.8027344,26.5025388 C97.172526,26.7603513 96.485026,26.8892576 95.7402344,26.8892576 L93.7529297,26.8892576 L93.7529297,16.7916013 L95.9335938,16.7916013 Z M160.913086,17.747656 L163.007812,23.8814451 L158.807617,23.8814451 L160.891602,17.747656 L160.913086,17.747656 Z" id="Combined-Shape" fill="#FFFFFF"></path>
    </g>
</svg>