<?xml version="1.0" encoding="UTF-8"?>
<svg width="186px" height="44px" viewBox="0 0 186 44" version="1.1" xmlns="http://www.w3.org/2000/svg" xmlns:xlink="http://www.w3.org/1999/xlink">
    <!-- Generator: Sketch 59.1 (86144) - https://sketch.com -->
    <title>Desktop/CTA/ClosedSofa Non sélec</title>
    <desc>Created with Sketch.</desc>
    <g id="Desktop/CTA/ClosedSofa-Non-sélec" stroke="none" stroke-width="1" fill="none" fill-rule="evenodd">
        <rect id="Rectangle-Copy" stroke="#FFFFFF" stroke-width="4.09399992" x="1.42108547e-13" y="7.10542736e-15" width="185.471982" height="43.7919957" rx="21.8959979"></rect>
        <path d="M26.0449219,30.1611328 C27.3554688,30.1611328 28.54069,29.8907877 29.6005859,29.3500977 C30.6604818,28.8094076 31.5485025,28.0914713 32.2646484,27.1962891 L29.9980469,25.2519531 C29.5182291,25.8535156 28.9345703,26.3333334 28.2470703,26.6914062 C27.5595703,27.0494791 26.8255209,27.2285156 26.0449219,27.2285156 C25.1282553,27.2285156 24.3100586,27.0154623 23.590332,26.5893555 C22.8706055,26.1632486 22.3120117,25.5706381 21.9145508,24.8115234 C21.5170898,24.0524088 21.3183594,23.1930338 21.3183594,22.2333984 C21.3183594,21.7893881 21.3577475,21.3668619 21.4365234,20.9658203 C21.5152994,20.5647787 21.6298828,20.1941732 21.7802734,19.8540039 C21.9306641,19.5138346 22.1114908,19.2005209 22.3227539,18.9140625 C22.534017,18.6276041 22.7739258,18.3751627 23.0424805,18.1567383 C23.3110352,17.9383139 23.6028646,17.7521158 23.9179688,17.5981445 C24.2330729,17.4441732 24.5696615,17.3277994 24.9277344,17.2490234 C25.2858072,17.1702475 25.6582031,17.1308594 26.0449219,17.1308594 C26.8183594,17.1308594 27.5488281,17.315267 28.2363281,17.684082 C28.9238281,18.0528971 29.5110678,18.5309244 29.9980469,19.1181641 L32.2646484,17.1845703 C31.7132162,16.5042318 31.0812174,15.9348959 30.3686523,15.4765625 C29.6560873,15.0182291 28.9417318,14.6888021 28.2255859,14.4882812 C27.50944,14.2877604 26.7825521,14.1875 26.0449219,14.1875 C25.0423178,14.1875 24.1131185,14.3235678 23.2573242,14.5957031 C22.4015299,14.8678385 21.660319,15.2491861 21.0336914,15.7397461 C20.4070639,16.230306 19.8699545,16.8085938 19.4223633,17.4746094 C18.9747721,18.140625 18.639974,18.8764648 18.4179688,19.6821289 C18.1959635,20.487793 18.0849609,21.3382162 18.0849609,22.2333984 C18.0849609,23.2431641 18.2246094,24.1777344 18.5039062,25.0371094 C18.7832031,25.8964844 19.1681315,26.6359049 19.6586914,27.2553711 C20.1492514,27.8748373 20.7275391,28.4065756 21.3935547,28.8505859 C22.0595703,29.2945963 22.7864584,29.6240234 23.5742188,29.8388672 C24.3619791,30.0537109 25.1855469,30.1611328 26.0449219,30.1611328 Z M34.6816406,30 L44.7255859,30 L44.7255859,27.2392578 L37.7753906,27.2392578 L37.7753906,14.3701172 L34.6816406,14.3701172 L34.6816406,30 Z M53.9208984,30.1826172 C55.0595703,30.1826172 56.1176758,29.9874674 57.0952148,29.597168 C58.0727539,29.2068685 58.912435,28.6661783 59.6142578,27.9750977 C60.3160807,27.284017 60.8675131,26.4389648 61.2685547,25.4399414 C61.6695963,24.440918 61.8701172,23.3541666 61.8701172,22.1796875 C61.8701172,21.0052084 61.6695963,19.9202475 61.2685547,18.9248047 C60.8675131,17.9293619 60.3160807,17.0861002 59.6142578,16.3950195 C58.912435,15.7039389 58.0727539,15.1632486 57.0952148,14.7729492 C56.1176758,14.3826498 55.0595703,14.1875 53.9208984,14.1875 C52.7607422,14.1875 51.6829428,14.3880209 50.6875,14.7890625 C49.6920572,15.1901041 48.8487955,15.7415365 48.1577148,16.4433594 C47.4666342,17.1451822 46.925944,17.9902344 46.5356445,18.9785156 C46.1453451,19.9667969 45.9501953,21.0338541 45.9501953,22.1796875 C45.9501953,23.3255209 46.1453451,24.3943685 46.5356445,25.3862305 C46.925944,26.3780924 47.4666342,27.224935 48.1577148,27.9267578 C48.8487955,28.6285807 49.690267,29.1800131 50.6821289,29.5810547 C51.6739908,29.9820963 52.7535807,30.1826172 53.9208984,30.1826172 Z M53.9316406,27.3037109 C53.014974,27.3037109 52.1914062,27.0745443 51.4609375,26.6162109 C50.7304688,26.1578775 50.1665039,25.5402018 49.769043,24.7631836 C49.371582,23.9861654 49.1728516,23.125 49.1728516,22.1796875 C49.1728516,21.2415365 49.371582,20.3839518 49.769043,19.6069336 C50.1665039,18.8299154 50.7304688,18.2140299 51.4609375,17.7592773 C52.1914062,17.3045248 53.014974,17.0771484 53.9316406,17.0771484 C54.8196615,17.0771484 55.6235352,17.2955729 56.3432617,17.7324219 C57.0629883,18.1692709 57.6287435,18.7779947 58.0405273,19.5585938 C58.4523111,20.3391928 58.6582031,21.2128906 58.6582031,22.1796875 C58.6582031,22.9029947 58.5382486,23.5833334 58.2983398,24.2207031 C58.058431,24.8580729 57.7290039,25.4023438 57.3100586,25.8535156 C56.8911133,26.3046875 56.3898111,26.6591797 55.8061523,26.9169922 C55.2224935,27.1748047 54.5976562,27.3037109 53.9316406,27.3037109 Z M69.3574219,30.1826172 C69.8873697,30.1826172 70.4065756,30.1271158 70.9150391,30.0161133 C71.4235025,29.9051107 71.9194336,29.7224935 72.402832,29.4682617 C72.8862305,29.2140299 73.3105469,28.9060873 73.6757812,28.5444336 C74.0410156,28.1827799 74.3346354,27.7280273 74.5566406,27.1801758 C74.7786459,26.6323242 74.8896484,26.0289713 74.8896484,25.3701172 C74.8896484,24.7255859 74.7893881,24.1598307 74.5888672,23.6728516 C74.2666016,22.8922525 73.6184896,22.2369791 72.6445312,21.7070312 C72.2823661,21.5106027 71.5966199,21.2115752 70.5872927,20.809949 L69.6062109,20.4244141 C69.4016797,20.3427734 69.2274414,20.2708008 69.0834961,20.2084961 C68.8435873,20.1046549 68.6036783,19.9864908 68.3637695,19.8540039 C68.1238607,19.721517 67.9430338,19.5926107 67.8212891,19.4672852 C67.6995443,19.3419596 67.6028646,19.2005209 67.53125,19.0429688 C67.4596354,18.8854166 67.4238281,18.7099609 67.4238281,18.5166016 C67.4309896,18.0296225 67.6082357,17.6464844 67.9555664,17.3671875 C68.3028971,17.0878906 68.7522787,16.9482422 69.3037109,16.9482422 C70.3206381,16.9482422 71.4557291,17.4602865 72.7089844,18.484375 L74.4921875,16.1533203 C72.8736979,14.8212891 71.1191406,14.1660156 69.2285156,14.1875 C68.3046875,14.2018229 67.4596354,14.4041342 66.6933594,14.7944336 C65.9270834,15.184733 65.32194,15.7200521 64.8779297,16.4003906 C64.4339193,17.0807291 64.2119141,17.8326822 64.2119141,18.65625 C64.2119141,19.0644531 64.2602539,19.4493815 64.3569336,19.8110352 C64.4536133,20.1726889 64.5789389,20.4913736 64.7329102,20.7670898 C64.8868815,21.042806 65.0874023,21.3041992 65.3344727,21.5512695 C65.581543,21.7983398 65.8304037,22.0096029 66.0810547,22.1850586 C66.3317057,22.3605143 66.6289062,22.5359701 66.9726562,22.7114258 C67.3164062,22.8868815 67.6350912,23.031901 67.9287109,23.1464844 L68.4013672,23.326416 C68.5696615,23.3890788 68.7486979,23.4544271 68.9384766,23.5224609 L69.4059765,23.6848828 C69.6199609,23.7613671 69.8042969,23.8307617 69.9589844,23.8930664 C70.2167969,23.9969076 70.4656576,24.1150717 70.7055664,24.2475586 C70.9454752,24.3800455 71.1280924,24.5143229 71.253418,24.6503906 C71.3787435,24.7864584 71.4772135,24.9440104 71.5488281,25.1230469 C71.6204428,25.3020834 71.65625,25.506185 71.65625,25.7353516 C71.65625,26.0647787 71.5738932,26.3512369 71.4091797,26.5947266 C71.2444662,26.8382162 70.9920248,27.0315756 70.6518555,27.1748047 C70.3116861,27.3180338 69.8981119,27.3896484 69.4111328,27.3896484 C69.0960287,27.3896484 68.7737631,27.3502604 68.4443359,27.2714844 C68.1149088,27.1927084 67.7836914,27.0745443 67.4506836,26.9169922 C67.1176758,26.75944 66.784668,26.5553385 66.4516602,26.3046875 C66.1186523,26.0540365 65.8089193,25.7639975 65.5224609,25.4345703 L63.6640625,27.7226562 C64.4661459,28.546224 65.355957,29.1621094 66.3334961,29.5703125 C67.3110352,29.9785156 68.3190104,30.1826172 69.3574219,30.1826172 Z M77.5,30 L87.9521484,30 L87.9521484,27.2392578 L80.5507812,27.2392578 L80.5507812,23.6191406 L86.1152344,23.6191406 L86.1152344,20.890625 L80.5507812,20.890625 L80.5507812,17.1416016 L87.4902344,17.1416016 L87.4902344,14.3701172 L77.5,14.3701172 L77.5,30 Z M90.7021484,30 L95.9335938,30 C97.172526,30 98.296875,29.8102213 99.3066406,29.4306641 C100.316406,29.0511068 101.163249,28.5193685 101.847168,27.8354492 C102.531087,27.1515299 103.057454,26.3297525 103.42627,25.3701172 C103.795085,24.4104818 103.979492,23.3577475 103.979492,22.2119141 C103.979492,21.0660807 103.787923,20.0079752 103.404785,19.0375977 C103.021647,18.0672201 102.480957,17.2400717 101.782715,16.5561523 C101.084473,15.872233 100.228678,15.3369141 99.215332,14.9501953 C98.2019857,14.5634766 97.0865885,14.3701172 95.8691406,14.3701172 L90.7021484,14.3701172 L90.7021484,30 Z M93.7529297,27.2392578 L93.7529297,17.1416016 L95.9335938,17.1416016 C96.8574219,17.1416016 97.688151,17.3582357 98.4257812,17.7915039 C99.1634115,18.2247721 99.7381185,18.828125 100.149902,19.6015625 C100.561686,20.375 100.767578,21.2451172 100.767578,22.2119141 C100.767578,22.9208984 100.647624,23.5833334 100.407715,24.1992188 C100.167806,24.8151041 99.8312174,25.3468424 99.3979492,25.7944336 C98.964681,26.2420248 98.4329428,26.5947266 97.8027344,26.8525391 C97.172526,27.1103516 96.485026,27.2392578 95.7402344,27.2392578 L93.7529297,27.2392578 Z M117.256836,30.1826172 C117.786784,30.1826172 118.30599,30.1271158 118.814453,30.0161133 C119.322917,29.9051107 119.818848,29.7224935 120.302246,29.4682617 C120.785645,29.2140299 121.209961,28.9060873 121.575195,28.5444336 C121.94043,28.1827799 122.234049,27.7280273 122.456055,27.1801758 C122.67806,26.6323242 122.789062,26.0289713 122.789062,25.3701172 C122.789062,24.7255859 122.688802,24.1598307 122.488281,23.6728516 C122.166016,22.8922525 121.517904,22.2369791 120.543945,21.7070312 C120.18178,21.5106027 119.496034,21.2115752 118.486707,20.809949 L117.505625,20.4244141 C117.301094,20.3427734 117.126855,20.2708008 116.98291,20.2084961 C116.743001,20.1046549 116.503092,19.9864908 116.263184,19.8540039 C116.023275,19.721517 115.842448,19.5926107 115.720703,19.4672852 C115.598958,19.3419596 115.502279,19.2005209 115.430664,19.0429688 C115.359049,18.8854166 115.323242,18.7099609 115.323242,18.5166016 C115.330404,18.0296225 115.50765,17.6464844 115.85498,17.3671875 C116.202311,17.0878906 116.651693,16.9482422 117.203125,16.9482422 C118.220052,16.9482422 119.355143,17.4602865 120.608398,18.484375 L122.391602,16.1533203 C120.773112,14.8212891 119.018555,14.1660156 117.12793,14.1875 C116.204102,14.2018229 115.359049,14.4041342 114.592773,14.7944336 C113.826497,15.184733 113.221354,15.7200521 112.777344,16.4003906 C112.333333,17.0807291 112.111328,17.8326822 112.111328,18.65625 C112.111328,19.0644531 112.159668,19.4493815 112.256348,19.8110352 C112.353027,20.1726889 112.478353,20.4913736 112.632324,20.7670898 C112.786296,21.042806 112.986816,21.3041992 113.233887,21.5512695 C113.480957,21.7983398 113.729818,22.0096029 113.980469,22.1850586 C114.23112,22.3605143 114.52832,22.5359701 114.87207,22.7114258 C115.21582,22.8868815 115.534505,23.031901 115.828125,23.1464844 L116.300781,23.326416 C116.469076,23.3890788 116.648112,23.4544271 116.837891,23.5224609 L117.305391,23.6848828 C117.519375,23.7613671 117.703711,23.8307617 117.858398,23.8930664 C118.116211,23.9969076 118.365072,24.1150717 118.60498,24.2475586 C118.844889,24.3800455 119.027506,24.5143229 119.152832,24.6503906 C119.278158,24.7864584 119.376628,24.9440104 119.448242,25.1230469 C119.519857,25.3020834 119.555664,25.506185 119.555664,25.7353516 C119.555664,26.0647787 119.473307,26.3512369 119.308594,26.5947266 C119.14388,26.8382162 118.891439,27.0315756 118.55127,27.1748047 C118.2111,27.3180338 117.797526,27.3896484 117.310547,27.3896484 C116.995443,27.3896484 116.673177,27.3502604 116.34375,27.2714844 C116.014323,27.1927084 115.683105,27.0745443 115.350098,26.9169922 C115.01709,26.75944 114.684082,26.5553385 114.351074,26.3046875 C114.018066,26.0540365 113.708333,25.7639975 113.421875,25.4345703 L111.563477,27.7226562 C112.36556,28.546224 113.255371,29.1621094 114.23291,29.5703125 C115.210449,29.9785156 116.218424,30.1826172 117.256836,30.1826172 Z M132.736328,30.1826172 C133.875,30.1826172 134.933105,29.9874674 135.910645,29.597168 C136.888184,29.2068685 137.727865,28.6661783 138.429688,27.9750977 C139.13151,27.284017 139.682943,26.4389648 140.083984,25.4399414 C140.485026,24.440918 140.685547,23.3541666 140.685547,22.1796875 C140.685547,21.0052084 140.485026,19.9202475 140.083984,18.9248047 C139.682943,17.9293619 139.13151,17.0861002 138.429688,16.3950195 C137.727865,15.7039389 136.888184,15.1632486 135.910645,14.7729492 C134.933105,14.3826498 133.875,14.1875 132.736328,14.1875 C131.576172,14.1875 130.498372,14.3880209 129.50293,14.7890625 C128.507487,15.1901041 127.664225,15.7415365 126.973145,16.4433594 C126.282064,17.1451822 125.741374,17.9902344 125.351074,18.9785156 C124.960775,19.9667969 124.765625,21.0338541 124.765625,22.1796875 C124.765625,23.3255209 124.960775,24.3943685 125.351074,25.3862305 C125.741374,26.3780924 126.282064,27.224935 126.973145,27.9267578 C127.664225,28.6285807 128.505697,29.1800131 129.497559,29.5810547 C130.489421,29.9820963 131.56901,30.1826172 132.736328,30.1826172 Z M132.74707,27.3037109 C131.830404,27.3037109 131.006836,27.0745443 130.276367,26.6162109 C129.545898,26.1578775 128.981934,25.5402018 128.584473,24.7631836 C128.187012,23.9861654 127.988281,23.125 127.988281,22.1796875 C127.988281,21.2415365 128.187012,20.3839518 128.584473,19.6069336 C128.981934,18.8299154 129.545898,18.2140299 130.276367,17.7592773 C131.006836,17.3045248 131.830404,17.0771484 132.74707,17.0771484 C133.635091,17.0771484 134.438965,17.2955729 135.158691,17.7324219 C135.878418,18.1692709 136.444173,18.7779947 136.855957,19.5585938 C137.267741,20.3391928 137.473633,21.2128906 137.473633,22.1796875 C137.473633,22.9029947 137.353678,23.5833334 137.11377,24.2207031 C136.873861,24.8580729 136.544434,25.4023438 136.125488,25.8535156 C135.706543,26.3046875 135.205241,26.6591797 134.621582,26.9169922 C134.037923,27.1748047 133.413086,27.3037109 132.74707,27.3037109 Z M143.478516,30 L146.529297,30 L146.529297,24.0810547 L152.630859,24.0810547 L152.630859,21.3203125 L146.529297,21.3203125 L146.529297,17.1416016 L153.844727,17.1416016 L153.844727,14.3701172 L143.478516,14.3701172 L143.478516,30 Z M164.973633,30 L168.207031,30 L162.395508,14.3701172 L159.40918,14.3701172 L153.619141,30 L156.852539,30 L157.916016,26.8740234 L163.910156,26.8740234 L164.973633,30 Z M158.807617,24.2314453 L160.891602,18.0976562 L160.913086,18.0976562 L163.007812,24.2314453 L158.807617,24.2314453 Z" id="CLOSEDSOFA" fill="#FFFFFF" fill-rule="nonzero"></path>
    </g>
</svg>