<?xml version="1.0" encoding="UTF-8"?>
<svg width="186px" height="44px" viewBox="0 0 186 44" version="1.1" xmlns="http://www.w3.org/2000/svg" xmlns:xlink="http://www.w3.org/1999/xlink">
    <!-- Generator: Sketch 59.1 (86144) - https://sketch.com -->
    <title>Desktop/CTA/Open Sofa Selec</title>
    <desc>Created with Sketch.</desc>
    <g id="Desktop/CTA/Open-Sofa-Selec" stroke="none" stroke-width="1" fill="none" fill-rule="evenodd">
        <path d="M163.575984,7.10542736e-15 C175.66881,1.33129763e-15 185.471982,9.80317216 185.471982,21.8959979 C185.471982,33.9888236 175.66881,43.7919957 163.575984,43.7919957 L21.8959979,43.7919957 C9.80317216,43.7919957 8.67460723e-14,33.9888236 8.52651283e-14,21.8959979 C8.37841843e-14,9.80317216 9.80317216,9.3268434e-15 21.8959979,7.10542736e-15 L163.575984,7.10542736e-15 Z M39.0449219,14.1875 C37.8847656,14.1875 36.8069662,14.3880209 35.8115234,14.7890625 C34.8160807,15.1901041 33.972819,15.7415365 33.2817383,16.4433594 C32.5906576,17.1451822 32.0499674,17.9902344 31.659668,18.9785156 C31.2693685,19.9667969 31.0742187,21.0338541 31.0742187,22.1796875 C31.0742187,23.3255209 31.2693685,24.3943685 31.659668,25.3862305 C32.0499674,26.3780924 32.5906576,27.224935 33.2817383,27.9267578 C33.972819,28.6285807 34.8142904,29.1800131 35.8061523,29.5810547 C36.7980143,29.9820963 37.8776041,30.1826172 39.0449219,30.1826172 C40.1835937,30.1826172 41.2416992,29.9874674 42.2192383,29.597168 C43.1967773,29.2068685 44.0364584,28.6661783 44.7382812,27.9750977 C45.4401041,27.284017 45.9915365,26.4389648 46.3925781,25.4399414 C46.7936197,24.440918 46.9941406,23.3541666 46.9941406,22.1796875 C46.9941406,21.0052084 46.7936197,19.9202475 46.3925781,18.9248047 C45.9915365,17.9293619 45.4401041,17.0861002 44.7382812,16.3950195 C44.0364584,15.7039389 43.1967773,15.1632486 42.2192383,14.7729492 C41.2416992,14.3826498 40.1835937,14.1875 39.0449219,14.1875 Z M103.669922,14.1875 C102.746094,14.2018229 101.901042,14.4041342 101.134766,14.7944336 C100.36849,15.184733 99.7633463,15.7200521 99.3193359,16.4003906 C98.8753256,17.0807291 98.6533203,17.8326822 98.6533203,18.65625 C98.6533203,19.0644531 98.7016602,19.4493815 98.7983398,19.8110352 C98.8950195,20.1726889 99.0203451,20.4913736 99.1743164,20.7670898 C99.3282877,21.042806 99.5288086,21.3041992 99.7758789,21.5512695 C100.022949,21.7983398 100.27181,22.0096029 100.522461,22.1850586 C100.773112,22.3605143 101.070312,22.5359701 101.414062,22.7114258 C101.757812,22.8868815 102.076497,23.031901 102.370117,23.1464844 C102.663737,23.2610678 103.000326,23.3863932 103.379883,23.5224609 C103.802409,23.66569 104.142578,23.7892252 104.400391,23.8930664 C104.658203,23.9969076 104.907064,24.1150717 105.146973,24.2475586 C105.386881,24.3800455 105.569499,24.5143229 105.694824,24.6503906 C105.82015,24.7864584 105.91862,24.9440104 105.990234,25.1230469 C106.061849,25.3020834 106.097656,25.506185 106.097656,25.7353516 C106.097656,26.0647787 106.015299,26.3512369 105.850586,26.5947266 C105.685872,26.8382162 105.433431,27.0315756 105.093262,27.1748047 C104.753092,27.3180338 104.339518,27.3896484 103.852539,27.3896484 C103.537435,27.3896484 103.215169,27.3502604 102.885742,27.2714844 C102.556315,27.1927084 102.225098,27.0745443 101.89209,26.9169922 C101.559082,26.75944 101.226074,26.5553385 100.893066,26.3046875 C100.560059,26.0540365 100.250326,25.7639975 99.9638672,25.4345703 L98.1054687,27.7226562 C98.9075521,28.546224 99.7973633,29.1621094 100.774902,29.5703125 C101.752441,29.9785156 102.760417,30.1826172 103.798828,30.1826172 C104.328776,30.1826172 104.847982,30.1271158 105.356445,30.0161133 C105.864909,29.9051107 106.36084,29.7224935 106.844238,29.4682617 C107.327637,29.2140299 107.751953,28.9060873 108.117187,28.5444336 C108.482422,28.1827799 108.776042,27.7280273 108.998047,27.1801758 C109.220052,26.6323242 109.331055,26.0289713 109.331055,25.3701172 C109.331055,24.7255859 109.230794,24.1598307 109.030273,23.6728516 C108.708008,22.8922525 108.059896,22.2369791 107.085937,21.7070312 C106.663412,21.4778646 105.800456,21.1090494 104.49707,20.6005859 C104.088867,20.4430338 103.764811,20.3123373 103.524902,20.2084961 C103.284994,20.1046549 103.045085,19.9864908 102.805176,19.8540039 C102.565267,19.721517 102.38444,19.5926107 102.262695,19.4672852 C102.140951,19.3419596 102.044271,19.2005209 101.972656,19.0429688 C101.901042,18.8854166 101.865234,18.7099609 101.865234,18.5166016 C101.872396,18.0296225 102.049642,17.6464844 102.396973,17.3671875 C102.744303,17.0878906 103.193685,16.9482422 103.745117,16.9482422 C104.762044,16.9482422 105.897135,17.4602865 107.150391,18.484375 L108.933594,16.1533203 C107.315104,14.8212891 105.560547,14.1660156 103.669922,14.1875 Z M119.27832,14.1875 C118.118164,14.1875 117.040365,14.3880209 116.044922,14.7890625 C115.049479,15.1901041 114.206217,15.7415365 113.515137,16.4433594 C112.824056,17.1451822 112.283366,17.9902344 111.893066,18.9785156 C111.502767,19.9667969 111.307617,21.0338541 111.307617,22.1796875 C111.307617,23.3255209 111.502767,24.3943685 111.893066,25.3862305 C112.283366,26.3780924 112.824056,27.224935 113.515137,27.9267578 C114.206217,28.6285807 115.047689,29.1800131 116.039551,29.5810547 C117.031413,29.9820963 118.111003,30.1826172 119.27832,30.1826172 C120.416992,30.1826172 121.475098,29.9874674 122.452637,29.597168 C123.430176,29.2068685 124.269857,28.6661783 124.97168,27.9750977 C125.673503,27.284017 126.224935,26.4389648 126.625977,25.4399414 C127.027018,24.440918 127.227539,23.3541666 127.227539,22.1796875 C127.227539,21.0052084 127.027018,19.9202475 126.625977,18.9248047 C126.224935,17.9293619 125.673503,17.0861002 124.97168,16.3950195 C124.269857,15.7039389 123.430176,15.1632486 122.452637,14.7729492 C121.475098,14.3826498 120.416992,14.1875 119.27832,14.1875 Z M55.5664062,14.3701172 L49.7871094,14.3701172 L49.7871094,30 L52.8378906,30 L52.8378906,24.6503906 L55.2763672,24.6503906 C56.1429037,24.6503906 56.925293,24.5465494 57.6235352,24.3388672 C58.3217773,24.131185 58.9233398,23.8196615 59.4282227,23.4042969 C59.9331055,22.9889322 60.3216146,22.4589844 60.59375,21.8144531 C60.8658854,21.1699219 61.0019531,20.4251303 61.0019531,19.5800781 C61.0019531,18.8138021 60.8945312,18.1191406 60.6796875,17.4960938 C60.4648437,16.8730469 60.1425781,16.3251953 59.7128906,15.8525391 C59.2832031,15.3798828 58.7156576,15.0146484 58.0102539,14.7568359 C57.3048502,14.4990234 56.4902344,14.3701172 55.5664062,14.3701172 Z M73.4951172,14.3701172 L63.5048828,14.3701172 L63.5048828,30 L73.9570312,30 L73.9570312,27.2392578 L66.5556641,27.2392578 L66.5556641,23.6191406 L72.1201172,23.6191406 L72.1201172,20.890625 L66.5556641,20.890625 L66.5556641,17.1416016 L73.4951172,17.1416016 L73.4951172,14.3701172 Z M79.7900391,14.3701172 L76.7070312,14.3701172 L76.7070312,30 L79.7900391,30 L79.7900391,19.6445312 L79.8330078,19.6445312 L86.7080078,30 L89.8769531,30 L89.8769531,14.3701172 L86.7832031,14.3701172 L86.7832031,24.9296875 L86.7402344,24.9296875 L79.7900391,14.3701172 Z M140.386719,14.3701172 L130.020508,14.3701172 L130.020508,30 L133.071289,30 L133.071289,24.0810547 L139.172852,24.0810547 L139.172852,21.3203125 L133.071289,21.3203125 L133.071289,17.1416016 L140.386719,17.1416016 L140.386719,14.3701172 Z M148.9375,14.3701172 L145.951172,14.3701172 L140.161133,30 L143.394531,30 L144.458008,26.8740234 L150.452148,26.8740234 L151.515625,30 L154.749023,30 L148.9375,14.3701172 Z M39.0556641,17.0771484 C39.943685,17.0771484 40.7475586,17.2955729 41.4672852,17.7324219 C42.1870117,18.1692709 42.752767,18.7779947 43.1645508,19.5585938 C43.5763346,20.3391928 43.7822266,21.2128906 43.7822266,22.1796875 C43.7822266,22.9029947 43.6622721,23.5833334 43.4223633,24.2207031 C43.1824545,24.8580729 42.8530273,25.4023438 42.434082,25.8535156 C42.0151367,26.3046875 41.5138346,26.6591797 40.9301758,26.9169922 C40.346517,27.1748047 39.7216797,27.3037109 39.0556641,27.3037109 C38.1389975,27.3037109 37.3154297,27.0745443 36.5849609,26.6162109 C35.8544922,26.1578775 35.2905273,25.5402018 34.8930664,24.7631836 C34.4956055,23.9861654 34.296875,23.125 34.296875,22.1796875 C34.296875,21.2415365 34.4956055,20.3839518 34.8930664,19.6069336 C35.2905273,18.8299154 35.8544922,18.2140299 36.5849609,17.7592773 C37.3154297,17.3045248 38.1389975,17.0771484 39.0556641,17.0771484 Z M119.289062,17.0771484 C120.177083,17.0771484 120.980957,17.2955729 121.700684,17.7324219 C122.42041,18.1692709 122.986165,18.7779947 123.397949,19.5585938 C123.809733,20.3391928 124.015625,21.2128906 124.015625,22.1796875 C124.015625,22.9029947 123.895671,23.5833334 123.655762,24.2207031 C123.415853,24.8580729 123.086426,25.4023438 122.66748,25.8535156 C122.248535,26.3046875 121.747233,26.6591797 121.163574,26.9169922 C120.579915,27.1748047 119.955078,27.3037109 119.289062,27.3037109 C118.372396,27.3037109 117.548828,27.0745443 116.818359,26.6162109 C116.087891,26.1578775 115.523926,25.5402018 115.126465,24.7631836 C114.729004,23.9861654 114.530273,23.125 114.530273,22.1796875 C114.530273,21.2415365 114.729004,20.3839518 115.126465,19.6069336 C115.523926,18.8299154 116.087891,18.2140299 116.818359,17.7592773 C117.548828,17.3045248 118.372396,17.0771484 119.289062,17.0771484 Z M147.455078,18.0976562 L149.549805,24.2314453 L145.349609,24.2314453 L147.433594,18.0976562 L147.455078,18.0976562 Z M55.0185547,17.1201172 C55.9065756,17.1201172 56.5922852,17.3349609 57.0756836,17.7646484 C57.559082,18.1943359 57.8007812,18.7779947 57.8007812,19.515625 C57.8007812,20.2532553 57.5519205,20.8369141 57.0541992,21.2666016 C56.5564779,21.6962891 55.8349609,21.9111328 54.8896484,21.9111328 L52.8378906,21.9111328 L52.8378906,17.1201172 L55.0185547,17.1201172 Z" id="Combined-Shape" fill="#FFFFFF"></path>
    </g>
</svg>