<?xml version="1.0" encoding="UTF-8"?>
<svg width="186px" height="44px" viewBox="0 0 186 44" version="1.1" xmlns="http://www.w3.org/2000/svg" xmlns:xlink="http://www.w3.org/1999/xlink">
    <!-- Generator: Sketch 59.1 (86144) - https://sketch.com -->
    <title>Desktop/CTA/OpenSofa</title>
    <desc>Created with Sketch.</desc>
    <g id="Desktop/CTA/OpenSofa" stroke="none" stroke-width="1" fill="none" fill-rule="evenodd">
        <rect id="Rectangle-Copy" stroke="#FFFFFF" stroke-width="4.09399992" x="1.42108547e-13" y="7.10542736e-15" width="185.471982" height="43.7919957" rx="21.8959979"></rect>
        <path d="M39.0849432,29.8326169 C40.2236151,29.8326169 41.2817205,29.6374671 42.2592596,29.2471677 C43.2367987,28.8568683 44.0764797,28.3161781 44.7783026,27.6250974 C45.4801254,26.9340167 46.0315578,26.0889646 46.4325994,25.0899411 C46.8336411,24.0909177 47.0341619,23.0041663 47.0341619,21.8296872 C47.0341619,20.6552081 46.8336411,19.5702472 46.4325994,18.5748044 C46.0315578,17.5793617 45.4801254,16.7360999 44.7783026,16.0450193 C44.0764797,15.3539386 43.2367987,14.8132484 42.2592596,14.422949 C41.2817205,14.0326495 40.2236151,13.8374997 39.0849432,13.8374997 C37.9247869,13.8374997 36.8469875,14.0380206 35.8515448,14.4390622 C34.856102,14.8401038 34.0128403,15.3915363 33.3217596,16.0933591 C32.6306789,16.795182 32.0899887,17.6402341 31.6996893,18.6285154 C31.3093899,19.6167966 31.1142401,20.6838538 31.1142401,21.8296872 C31.1142401,22.9755206 31.3093899,24.0443683 31.6996893,25.0362302 C32.0899887,26.0280921 32.6306789,26.8749347 33.3217596,27.5767576 C34.0128403,28.2785804 34.8543117,28.8300128 35.8461737,29.2310544 C36.8380356,29.632096 37.9176254,29.8326169 39.0849432,29.8326169 Z M39.0956854,26.9537107 C38.1790188,26.9537107 37.355451,26.7245441 36.6249823,26.2662107 C35.8945135,25.8078773 35.3305487,25.1902015 34.9330877,24.4131833 C34.5356268,23.6361652 34.3368963,22.7749997 34.3368963,21.8296872 C34.3368963,20.8915363 34.5356268,20.0339515 34.9330877,19.2569333 C35.3305487,18.4799152 35.8945135,17.8640296 36.6249823,17.4092771 C37.355451,16.9545245 38.1790188,16.7271482 39.0956854,16.7271482 C39.9837063,16.7271482 40.7875799,16.9455726 41.5073065,17.3824216 C42.227033,17.8192706 42.7927883,18.4279945 43.2045721,19.2085935 C43.6163559,19.9891925 43.8222479,20.8628904 43.8222479,21.8296872 C43.8222479,22.5529945 43.7022934,23.2333331 43.4623846,23.8707029 C43.2224758,24.5080726 42.8930487,25.0523435 42.4741034,25.5035154 C42.055158,25.9546872 41.5538559,26.3091794 40.9701971,26.5669919 C40.3865383,26.8248044 39.761701,26.9537107 39.0956854,26.9537107 Z M49.8271307,29.6499997 L52.8779119,29.6499997 L52.8779119,24.3003904 L55.3163885,24.3003904 C56.182925,24.3003904 56.9653143,24.1965492 57.6635565,23.9888669 C58.3617987,23.7811847 58.9633612,23.4696613 59.468244,23.0542966 C59.9731268,22.638932 60.361636,22.1089841 60.6337713,21.4644529 C60.9059067,20.8199216 61.0419744,20.07513 61.0419744,19.2300779 C61.0419744,18.4638019 60.9345526,17.7691404 60.7197088,17.1460935 C60.5048651,16.5230466 60.1825994,15.9751951 59.7529119,15.5025388 C59.3232244,15.0298826 58.7556789,14.6646482 58.0502752,14.4068357 C57.3448715,14.1490232 56.5302557,14.0201169 55.6064276,14.0201169 L49.8271307,14.0201169 L49.8271307,29.6499997 Z M52.8779119,21.5611326 L52.8779119,16.7701169 L55.058576,16.7701169 C55.9465969,16.7701169 56.6323065,16.9849607 57.1157049,17.4146482 C57.5991034,17.8443357 57.8408026,18.4279945 57.8408026,19.1656247 C57.8408026,19.903255 57.5919418,20.4869138 57.0942205,20.9166013 C56.5964992,21.3462888 55.8749823,21.5611326 54.9296698,21.5611326 L52.8779119,21.5611326 Z M63.5449041,29.6499997 L73.9970526,29.6499997 L73.9970526,26.8892576 L66.5956854,26.8892576 L66.5956854,23.2691404 L72.1601385,23.2691404 L72.1601385,20.5406247 L66.5956854,20.5406247 L66.5956854,16.7916013 L73.5351385,16.7916013 L73.5351385,14.0201169 L63.5449041,14.0201169 L63.5449041,29.6499997 Z M86.8232244,14.0201169 L86.8232244,24.5796872 L86.7802557,24.5796872 L79.8300604,14.0201169 L76.7470526,14.0201169 L76.7470526,29.6499997 L79.8300604,29.6499997 L79.8300604,19.294531 L79.8730291,19.294531 L86.7480291,29.6499997 L89.9169744,29.6499997 L89.9169744,14.0201169 L86.8232244,14.0201169 Z M103.838849,29.8326169 C104.368797,29.8326169 104.888003,29.7771156 105.396467,29.666113 C105.90493,29.5551105 106.400861,29.3724933 106.88426,29.1182615 C107.367658,28.8640296 107.791974,28.556087 108.157209,28.1944333 C108.522443,27.8327796 108.816063,27.3780271 109.038068,26.8301755 C109.260073,26.282324 109.371076,25.678971 109.371076,25.0201169 C109.371076,24.3755857 109.270816,23.8098304 109.070295,23.3228513 C108.748029,22.5422523 108.099917,21.8869788 107.125959,21.357031 C106.763794,21.1606025 106.078047,20.861575 105.06872,20.4599487 L104.087638,20.0744138 C103.883107,19.9927732 103.708869,19.9208006 103.564924,19.8584958 C103.325015,19.7546546 103.085106,19.6364906 102.845197,19.5040036 C102.605288,19.3715167 102.424461,19.2426105 102.302717,19.1172849 C102.180972,18.9919593 102.084292,18.8505206 102.012678,18.6929685 C101.941063,18.5354163 101.905256,18.3599607 101.905256,18.1666013 C101.912417,17.6796222 102.089663,17.2964841 102.436994,17.0171872 C102.784325,16.7378904 103.233706,16.5982419 103.785139,16.5982419 C104.802066,16.5982419 105.937157,17.1102863 107.190412,18.1343747 L108.973615,15.8033201 C107.355125,14.4712888 105.600568,13.8160154 103.709943,13.8374997 C102.786115,13.8518226 101.941063,14.0541339 101.174787,14.4444333 C100.408511,14.8347328 99.8033676,15.3700519 99.3593573,16.0503904 C98.9153469,16.7307288 98.6933416,17.482682 98.6933416,18.3062497 C98.6933416,18.7144529 98.7416815,19.0993812 98.8383612,19.4610349 C98.9350409,19.8226886 99.0603664,20.1413734 99.2143377,20.4170896 C99.368309,20.6928058 99.5688299,20.954199 99.8159002,21.2012693 C100.062971,21.4483396 100.311831,21.6596027 100.562482,21.8350583 C100.813133,22.010514 101.110334,22.1859698 101.454084,22.3614255 C101.797834,22.5368812 102.116519,22.6819007 102.410139,22.7964841 L102.882795,22.9764158 C103.051089,23.0390785 103.230126,23.1044268 103.419904,23.1724607 L103.887404,23.3348825 C104.101388,23.4113669 104.285724,23.4807614 104.440412,23.5430661 C104.698224,23.6469073 104.947085,23.7650714 105.186994,23.8975583 C105.426903,24.0300453 105.60952,24.1643226 105.734846,24.3003904 C105.860171,24.4364581 105.958641,24.5940101 106.030256,24.7730466 C106.10187,24.9520831 106.137678,25.1561847 106.137678,25.3853513 C106.137678,25.7147784 106.055321,26.0012367 105.890607,26.2447263 C105.725894,26.4882159 105.473452,26.6815753 105.133283,26.8248044 C104.793114,26.9680335 104.379539,27.0396482 103.89256,27.0396482 C103.577456,27.0396482 103.255191,27.0002601 102.925764,26.9214841 C102.596336,26.8427081 102.265119,26.7245441 101.932111,26.5669919 C101.599103,26.4094398 101.266096,26.2053382 100.933088,25.9546872 C100.60008,25.7040363 100.290347,25.4139972 100.003889,25.0845701 L98.1454901,27.372656 C98.9475735,28.1962238 99.8373846,28.8121091 100.814924,29.2203122 C101.792463,29.6285154 102.800438,29.8326169 103.838849,29.8326169 Z M119.318342,29.8326169 C120.457014,29.8326169 121.515119,29.6374671 122.492658,29.2471677 C123.470197,28.8568683 124.309878,28.3161781 125.011701,27.6250974 C125.713524,26.9340167 126.264956,26.0889646 126.665998,25.0899411 C127.067039,24.0909177 127.26756,23.0041663 127.26756,21.8296872 C127.26756,20.6552081 127.067039,19.5702472 126.665998,18.5748044 C126.264956,17.5793617 125.713524,16.7360999 125.011701,16.0450193 C124.309878,15.3539386 123.470197,14.8132484 122.492658,14.422949 C121.515119,14.0326495 120.457014,13.8374997 119.318342,13.8374997 C118.158185,13.8374997 117.080386,14.0380206 116.084943,14.4390622 C115.0895,14.8401038 114.246239,15.3915363 113.555158,16.0933591 C112.864077,16.795182 112.323387,17.6402341 111.933088,18.6285154 C111.542788,19.6167966 111.347639,20.6838538 111.347639,21.8296872 C111.347639,22.9755206 111.542788,24.0443683 111.933088,25.0362302 C112.323387,26.0280921 112.864077,26.8749347 113.555158,27.5767576 C114.246239,28.2785804 115.08771,28.8300128 116.079572,29.2310544 C117.071434,29.632096 118.151024,29.8326169 119.318342,29.8326169 Z M119.329084,26.9537107 C118.412417,26.9537107 117.588849,26.7245441 116.858381,26.2662107 C116.127912,25.8078773 115.563947,25.1902015 115.166486,24.4131833 C114.769025,23.6361652 114.570295,22.7749997 114.570295,21.8296872 C114.570295,20.8915363 114.769025,20.0339515 115.166486,19.2569333 C115.563947,18.4799152 116.127912,17.8640296 116.858381,17.4092771 C117.588849,16.9545245 118.412417,16.7271482 119.329084,16.7271482 C120.217105,16.7271482 121.020978,16.9455726 121.740705,17.3824216 C122.460431,17.8192706 123.026187,18.4279945 123.437971,19.2085935 C123.849754,19.9891925 124.055646,20.8628904 124.055646,21.8296872 C124.055646,22.5529945 123.935692,23.2333331 123.695783,23.8707029 C123.455874,24.5080726 123.126447,25.0523435 122.707502,25.5035154 C122.288556,25.9546872 121.787254,26.3091794 121.203596,26.5669919 C120.619937,26.8248044 119.995099,26.9537107 119.329084,26.9537107 Z M130.060529,29.6499997 L133.11131,29.6499997 L133.11131,23.7310544 L139.212873,23.7310544 L139.212873,20.9703122 L133.11131,20.9703122 L133.11131,16.7916013 L140.42674,16.7916013 L140.42674,14.0201169 L130.060529,14.0201169 L130.060529,29.6499997 Z M151.555646,29.6499997 L154.789045,29.6499997 L148.977521,14.0201169 L145.991193,14.0201169 L140.201154,29.6499997 L143.434553,29.6499997 L144.498029,26.5240232 L150.49217,26.5240232 L151.555646,29.6499997 Z M145.389631,23.8814451 L147.473615,17.747656 L147.495099,17.747656 L149.589826,23.8814451 L145.389631,23.8814451 Z" id="OPENSOFA" fill="#FFFFFF" fill-rule="nonzero"></path>
    </g>
</svg>