<?xml version="1.0" encoding="UTF-8"?>
<svg width="206px" height="45px" viewBox="0 0 206 45" version="1.1" xmlns="http://www.w3.org/2000/svg" xmlns:xlink="http://www.w3.org/1999/xlink">
    <!-- Generator: Sketch 59.1 (86144) - https://sketch.com -->
    <title>LOGO</title>
    <desc>Created with Sketch.</desc>
    <g id="LOGO" stroke="none" stroke-width="1" fill="none" fill-rule="evenodd">
        <path d="M24.1008301,38.3103027 C26.751709,38.3103027 29.1490884,37.7634683 31.2929688,36.6697998 C33.4368491,35.5761313 35.2330728,34.1239419 36.6816406,32.3132324 L32.0969238,28.3803711 C31.1263834,29.597168 29.9458008,30.5677084 28.5551758,31.2919922 C27.1645508,32.0162759 25.679769,32.378418 24.1008301,32.378418 C22.2466635,32.378418 20.5916748,31.9474692 19.1358643,31.0855713 C17.6800537,30.2236734 16.5501709,29.0249838 15.7462158,27.489502 C14.9422607,25.9540201 14.5402832,24.2157388 14.5402832,22.2746582 C14.5402832,21.3765463 14.6199545,20.5218912 14.7792969,19.7106934 C14.9386392,18.8994956 15.1704102,18.1498618 15.4746094,17.461792 C15.7788086,16.7737222 16.1445718,16.1399741 16.5718994,15.5605469 C16.999227,14.9811197 17.4844971,14.4704996 18.02771,14.0286865 C18.5709229,13.5868735 19.1612143,13.2102457 19.798584,12.8988037 C20.4359537,12.5873618 21.1167807,12.3519693 21.8410645,12.192627 C22.5653482,12.0332846 23.3186035,11.9536133 24.1008301,11.9536133 C25.6652832,11.9536133 27.1428223,12.3266196 28.5334473,13.0726318 C29.9240723,13.8186441 31.1118979,14.785563 32.0969238,15.9733887 L36.6816406,12.0622559 C35.5662436,10.6861166 34.2878824,9.53450532 32.8465576,8.60742188 C31.4052329,7.68033843 29.9602866,7.01399751 28.5117188,6.60839844 C27.0631509,6.20279937 25.5928549,6 24.1008301,6 C22.0728354,6 20.1933188,6.27522798 18.4622803,6.82568359 C16.7312418,7.37613921 15.2319742,8.14750152 13.9644775,9.13977051 C12.6969809,10.1320395 11.6105551,11.3017578 10.7052002,12.6489258 C9.79984527,13.9960938 9.12264008,15.4844971 8.67358398,17.1141357 C8.22452788,18.7437744 8,20.4639487 8,22.2746582 C8,24.3171387 8.2824707,26.2075195 8.84741211,27.9458008 C9.41235352,29.684082 10.1909585,31.1797281 11.1832275,32.4327393 C12.1754965,33.6857504 13.3452148,34.761312 14.6923828,35.6594238 C16.0395508,36.5575357 17.5098471,37.223877 19.1032715,37.6584473 C20.6966959,38.0930176 22.3625488,38.3103027 24.1008301,38.3103027 Z M56.2807617,38.3537598 C58.5839844,38.3537598 60.7242432,37.959025 62.7015381,37.1695557 C64.678833,36.3800864 66.3772788,35.2864175 67.796875,33.8885498 C69.2164712,32.4906821 70.3318686,30.7813721 71.1430664,28.7606201 C71.9542642,26.7398682 72.3598633,24.5416666 72.3598633,22.1660156 C72.3598633,19.7903647 71.9542642,17.5957846 71.1430664,15.5822754 C70.3318686,13.5687662 69.2164712,11.8630777 67.796875,10.46521 C66.3772788,9.06734223 64.678833,7.97367339 62.7015381,7.1842041 C60.7242432,6.39473481 58.5839844,6 56.2807617,6 C53.934082,6 51.7539877,6.40559907 49.7404785,7.21679688 C47.7269693,8.02799468 46.0212808,9.14339204 44.6234131,10.5629883 C43.2255454,11.9825845 42.1318765,13.6918945 41.3424072,15.690918 C40.5529379,17.6899414 40.1582031,19.8483072 40.1582031,22.1660156 C40.1582031,24.4837241 40.5529379,26.6457114 41.3424072,28.6519775 C42.1318765,30.6582437 43.2255454,32.3711752 44.6234131,33.7907715 C46.0212808,35.2103677 47.7233481,36.3257651 49.7296143,37.1369629 C51.7358804,37.9481607 53.9195962,38.3537598 56.2807617,38.3537598 Z M56.3024902,32.5305176 C54.4483237,32.5305176 52.7824707,32.066976 51.3049316,31.1398926 C49.8273926,30.2128091 48.6866455,28.9634195 47.8826904,27.3917236 C47.0787354,25.8200278 46.6767578,24.078125 46.6767578,22.1660156 C46.6767578,20.268392 47.0787354,18.533732 47.8826904,16.9620361 C48.6866455,15.3903403 49.8273926,14.1445718 51.3049316,13.2247314 C52.7824707,12.3048911 54.4483237,11.8449707 56.3024902,11.8449707 C58.0987143,11.8449707 59.7247314,12.2867837 61.180542,13.1704102 C62.6363525,14.0540366 63.7807211,15.2853189 64.6136475,16.8642578 C65.4465738,18.4431967 65.8630371,20.2104492 65.8630371,22.1660156 C65.8630371,23.6290689 65.6204019,25.0052084 65.1351318,26.2944336 C64.6498618,27.5836587 63.9835205,28.6845703 63.1361084,29.597168 C62.2886963,30.5097656 61.2746988,31.2268066 60.0941162,31.748291 C58.9135336,32.2697754 57.6496582,32.5305176 56.3024902,32.5305176 Z M90.3510742,38.3537598 C93.0309244,38.3537598 95.3377686,37.8033041 97.2716064,36.7023926 C99.2054443,35.601481 100.675741,34.0442709 101.682495,32.0307617 C102.68925,30.0172525 103.192627,27.6416016 103.192627,24.9038086 L103.192627,6.36938477 L96.9348145,6.36938477 L96.9348145,24.4909668 C96.9348145,26.9680176 96.326416,28.9199625 95.1096191,30.3468018 C93.8928223,31.7736411 92.3066406,32.4870605 90.3510742,32.4870605 C89.0039062,32.4870605 87.8341879,32.1357828 86.8419189,31.4332275 C85.84965,30.7306723 85.1072592,29.7818604 84.6147461,28.586792 C84.122233,27.3917236 83.8759766,26.0264487 83.8759766,24.4909668 L83.8759766,6.36938477 L77.5964355,6.36938477 L77.5964355,24.9038086 C77.5964355,27.0332031 77.9042563,28.9453125 78.5198975,30.6401367 C79.1355386,32.3349609 80.0010581,33.7436929 81.1164551,34.866333 C82.2318521,35.9889731 83.5753989,36.8508707 85.1470947,37.4520264 C86.7187906,38.0531821 88.4534506,38.3537598 90.3510742,38.3537598 Z M124.573486,38.3103027 C127.224365,38.3103027 129.621745,37.7634683 131.765625,36.6697998 C133.909505,35.5761313 135.705729,34.1239419 137.154297,32.3132324 L132.56958,28.3803711 C131.59904,29.597168 130.418457,30.5677084 129.027832,31.2919922 C127.637207,32.0162759 126.152425,32.378418 124.573486,32.378418 C122.71932,32.378418 121.064331,31.9474692 119.608521,31.0855713 C118.15271,30.2236734 117.022827,29.0249838 116.218872,27.489502 C115.414917,25.9540201 115.012939,24.2157388 115.012939,22.2746582 C115.012939,21.3765463 115.092611,20.5218912 115.251953,19.7106934 C115.411295,18.8994956 115.643066,18.1498618 115.947266,17.461792 C116.251465,16.7737222 116.617228,16.1399741 117.044556,15.5605469 C117.471883,14.9811197 117.957153,14.4704996 118.500366,14.0286865 C119.043579,13.5868735 119.633871,13.2102457 120.27124,12.8988037 C120.90861,12.5873618 121.589437,12.3519693 122.313721,12.192627 C123.038004,12.0332846 123.79126,11.9536133 124.573486,11.9536133 C126.137939,11.9536133 127.615479,12.3266196 129.006104,13.0726318 C130.396729,13.8186441 131.584554,14.785563 132.56958,15.9733887 L137.154297,12.0622559 C136.0389,10.6861166 134.760539,9.53450532 133.319214,8.60742188 C131.877889,7.68033843 130.432943,7.01399751 128.984375,6.60839844 C127.535807,6.20279937 126.065511,6 124.573486,6 C122.545492,6 120.665975,6.27522798 118.934937,6.82568359 C117.203898,7.37613921 115.70463,8.14750152 114.437134,9.13977051 C113.169637,10.1320395 112.083211,11.3017578 111.177856,12.6489258 C110.272502,13.9960938 109.595296,15.4844971 109.14624,17.1141357 C108.697184,18.7437744 108.472656,20.4639487 108.472656,22.2746582 C108.472656,24.3171387 108.755127,26.2075195 109.320068,27.9458008 C109.88501,29.684082 110.663615,31.1797281 111.655884,32.4327393 C112.648153,33.6857504 113.817871,34.761312 115.165039,35.6594238 C116.512207,36.5575357 117.982503,37.223877 119.575928,37.6584473 C121.169352,38.0930176 122.835205,38.3103027 124.573486,38.3103027 Z M142.043213,37.984375 L148.322754,37.984375 L148.322754,25.6425781 L161.251221,25.6425781 L161.251221,37.984375 L167.55249,37.984375 L167.55249,6.36938477 L161.251221,6.36938477 L161.251221,20.0583496 L148.322754,20.0583496 L148.322754,6.36938477 L142.043213,6.36938477 L142.043213,37.984375 Z M191.475586,6.36938477 L198.711182,6.36938477 L188.19458,24.0998535 L188.19458,37.984375 L181.871582,37.984375 L181.871582,24.0998535 L171.420166,6.36938477 L178.590576,6.36938477 L185.022217,17.9072266 L185.109131,17.9072266 L191.475586,6.36938477 Z" id="COUCHY" fill="#FFFFFF" fill-rule="nonzero"></path>
    </g>
</svg>