<?xml version="1.0" encoding="UTF-8"?>
<svg width="167px" height="39px" viewBox="0 0 167 39" version="1.1" xmlns="http://www.w3.org/2000/svg" xmlns:xlink="http://www.w3.org/1999/xlink">
    <!-- Generator: Sketch 59.1 (86144) - https://sketch.com -->
    <title>Mobile/CTA/Closed Sofa</title>
    <desc>Created with Sketch.</desc>
    <g id="Mobile/CTA/Closed-Sofa" stroke="none" stroke-width="1" fill="none" fill-rule="evenodd">
        <path d="M147.5,0 C158.269553,-1.97833472e-15 167,8.73044738 167,19.5 C167,30.2695526 158.269553,39 147.5,39 L19.5,39 C8.73044738,39 1.31888981e-15,30.2695526 0,19.5 C-1.31888981e-15,8.73044738 8.73044738,1.97833472e-15 19.5,0 L147.5,0 Z M49.2288077,12.7687504 C48.1846671,12.7687504 47.2146477,12.9492192 46.3187492,13.3101566 C45.4228507,13.6710941 44.6639152,14.1673832 44.0419426,14.7990238 C43.41997,15.4306643 42.9333488,16.1912112 42.5820794,17.0806643 C42.2308099,17.9701174 42.0551751,18.9304689 42.0551751,19.9617189 C42.0551751,20.992969 42.2308099,21.9549318 42.5820794,22.8476075 C42.9333488,23.7402832 43.41997,24.5024415 44.0419426,25.1340821 C44.6639152,25.7657226 45.4212395,26.2620118 46.3139152,26.6229492 C47.2065909,26.9838867 48.1782218,27.1643555 49.2288077,27.1643555 C50.2536124,27.1643555 51.2059073,26.9887207 52.0856924,26.6374512 C52.9654775,26.2861817 53.7211905,25.7995605 54.352831,25.1775879 C54.9844716,24.5556153 55.4807607,23.7950684 55.8416982,22.8959474 C56.2026356,21.9968263 56.3831044,21.0187501 56.3831044,19.9617189 C56.3831044,18.9046878 56.2026356,17.9282229 55.8416982,17.0323245 C55.4807607,16.136426 54.9844716,15.3774905 54.352831,14.7555179 C53.7211905,14.1335453 52.9654775,13.6469241 52.0856924,13.2956547 C51.2059073,12.9443852 50.2536124,12.7687504 49.2288077,12.7687504 Z M63.0056628,12.7687504 C62.1742175,12.781641 61.4136706,12.9637211 60.7240223,13.3149906 C60.0343739,13.6662601 59.4897449,14.1480473 59.0901356,14.7603519 C58.6905263,15.3726565 58.4907215,16.0494143 58.4907215,16.7906253 C58.4907215,17.1580081 58.5342274,17.5044436 58.6212391,17.8299319 C58.7082508,18.1554202 58.8210438,18.4422365 58.959618,18.6903811 C59.0981922,18.9385257 59.278661,19.1737795 59.5010242,19.3961428 C59.7233875,19.6185061 59.9473622,19.8086428 60.172948,19.9665529 C60.3985339,20.124463 60.6660144,20.2823733 60.9753894,20.4402834 C61.2847644,20.5981935 61.5715809,20.7287111 61.8358386,20.8318361 C62.1000964,20.9349611 62.4030262,21.047754 62.7446277,21.170215 C63.124901,21.2991212 63.4310534,21.4103028 63.6630847,21.5037599 C63.8951159,21.597217 64.1190906,21.7035646 64.3350085,21.8228029 C64.5509264,21.9420411 64.7152819,22.0628907 64.8280749,22.1853517 C64.9408679,22.3078127 65.0294908,22.4496094 65.093944,22.6107423 C65.1583972,22.7718752 65.1906237,22.9555666 65.1906237,23.1618165 C65.1906237,23.4583009 65.1165026,23.7161133 64.9682604,23.935254 C64.8200183,24.1543947 64.592821,24.3284181 64.2866686,24.4573243 C63.9805163,24.5862305 63.6082995,24.6506837 63.1700183,24.6506837 C62.8864246,24.6506837 62.5963855,24.6152344 62.2999011,24.544336 C62.0034167,24.4734376 61.7053211,24.36709 61.405614,24.225293 C61.105907,24.0834961 60.8062,23.8998047 60.506493,23.6742188 C60.2067859,23.448633 59.9280262,23.1875978 59.6702137,22.8911134 L57.9976551,24.9503907 C58.7195302,25.6916016 59.5203602,26.2458985 60.4001453,26.6132813 C61.2799304,26.9806641 62.1871081,27.1643555 63.1216784,27.1643555 C63.5986315,27.1643555 64.0659167,27.1144042 64.5235339,27.014502 C64.981151,26.9145997 65.4274889,26.7502442 65.8625475,26.5214356 C66.2976061,26.2926269 66.6794908,26.0154786 67.0082018,25.6899903 C67.3369127,25.3645019 67.6011705,24.9552247 67.8009752,24.4621583 C68.0007799,23.9690919 68.1006822,23.4260743 68.1006822,22.8331056 C68.1006822,22.2530275 68.0104479,21.7438477 67.8299791,21.3055666 C67.53994,20.6030275 66.9566393,20.0132814 66.0800768,19.5363283 C65.6998034,19.3300784 64.9231432,18.9981447 63.7500964,18.5405276 C63.3827136,18.3987306 63.0910632,18.2811038 62.8751452,18.1876467 C62.6592273,18.0941896 62.4433093,17.987842 62.2273914,17.8686038 C62.0114734,17.7493655 61.8487292,17.6333499 61.7391589,17.5205569 C61.6295887,17.4077639 61.542577,17.2804691 61.4781238,17.1386721 C61.4136706,16.9968752 61.3814441,16.8389651 61.3814441,16.6649417 C61.3878895,16.2266605 61.547411,15.8818362 61.8600086,15.6304691 C62.1726061,15.3791019 62.5770496,15.2534183 63.0733386,15.2534183 C63.988573,15.2534183 65.0101549,15.7142582 66.1380846,16.6359378 L67.7429674,14.5379886 C66.2863267,13.3391605 64.7072253,12.7494144 63.0056628,12.7687504 Z M106.115134,12.7687504 C105.283689,12.781641 104.523142,12.9637211 103.833494,13.3149906 C103.143845,13.6662601 102.599216,14.1480473 102.199607,14.7603519 C101.799998,15.3726565 101.600193,16.0494143 101.600193,16.7906253 C101.600193,17.1580081 101.643699,17.5044436 101.730711,17.8299319 C101.817722,18.1554202 101.930515,18.4422365 102.06909,18.6903811 C102.207664,18.9385257 102.388132,19.1737795 102.610496,19.3961428 C102.832859,19.6185061 103.056834,19.8086428 103.28242,19.9665529 C103.508005,20.124463 103.775486,20.2823733 104.084861,20.4402834 C104.394236,20.5981935 104.681052,20.7287111 104.94531,20.8318361 C105.209568,20.9349611 105.512498,21.047754 105.854099,21.170215 C106.234373,21.2991212 106.540525,21.4103028 106.772556,21.5037599 C107.004587,21.597217 107.228562,21.7035646 107.44448,21.8228029 C107.660398,21.9420411 107.824753,22.0628907 107.937546,22.1853517 C108.050339,22.3078127 108.138962,22.4496094 108.203416,22.6107423 C108.267869,22.7718752 108.300095,22.9555666 108.300095,23.1618165 C108.300095,23.4583009 108.225974,23.7161133 108.077732,23.935254 C107.92949,24.1543947 107.702293,24.3284181 107.39614,24.4573243 C107.089988,24.5862305 106.717771,24.6506837 106.27949,24.6506837 C105.995896,24.6506837 105.705857,24.6152344 105.409373,24.544336 C105.112888,24.4734376 104.814793,24.36709 104.515086,24.225293 C104.215379,24.0834961 103.915671,23.8998047 103.615964,23.6742188 C103.316257,23.448633 103.037498,23.1875978 102.779685,22.8911134 L101.107127,24.9503907 C101.829002,25.6916016 102.629832,26.2458985 103.509617,26.6132813 C104.389402,26.9806641 105.29658,27.1643555 106.23115,27.1643555 C106.708103,27.1643555 107.175388,27.1144042 107.633005,27.014502 C108.090623,26.9145997 108.53696,26.7502442 108.972019,26.5214356 C109.407078,26.2926269 109.788962,26.0154786 110.117673,25.6899903 C110.446384,25.3645019 110.710642,24.9552247 110.910447,24.4621583 C111.110251,23.9690919 111.210154,23.4260743 111.210154,22.8331056 C111.210154,22.2530275 111.119919,21.7438477 110.939451,21.3055666 C110.649412,20.6030275 110.066111,20.0132814 109.189548,19.5363283 C108.809275,19.3300784 108.032615,18.9981447 106.859568,18.5405276 C106.492185,18.3987306 106.200535,18.2811038 105.984617,18.1876467 C105.768699,18.0941896 105.552781,17.987842 105.336863,17.8686038 C105.120945,17.7493655 104.958201,17.6333499 104.84863,17.5205569 C104.73906,17.4077639 104.652048,17.2804691 104.587595,17.1386721 C104.523142,16.9968752 104.490916,16.8389651 104.490916,16.6649417 C104.497361,16.2266605 104.656882,15.8818362 104.96948,15.6304691 C105.282078,15.3791019 105.686521,15.2534183 106.18281,15.2534183 C107.098045,15.2534183 108.119626,15.7142582 109.247556,16.6359378 L110.852439,14.5379886 C109.395798,13.3391605 107.816697,12.7494144 106.115134,12.7687504 Z M120.162693,12.7687504 C119.118552,12.7687504 118.148532,12.9492192 117.252634,13.3101566 C116.356736,13.6710941 115.5978,14.1673832 114.975827,14.7990238 C114.353855,15.4306643 113.867234,16.1912112 113.515964,17.0806643 C113.164695,17.9701174 112.98906,18.9304689 112.98906,19.9617189 C112.98906,20.992969 113.164695,21.9549318 113.515964,22.8476075 C113.867234,23.7402832 114.353855,24.5024415 114.975827,25.1340821 C115.5978,25.7657226 116.355124,26.2620118 117.2478,26.6229492 C118.140476,26.9838867 119.112107,27.1643555 120.162693,27.1643555 C121.187497,27.1643555 122.139792,26.9887207 123.019577,26.6374512 C123.899362,26.2861817 124.655075,25.7995605 125.286716,25.1775879 C125.918356,24.5556153 126.414646,23.7950684 126.775583,22.8959474 C127.13652,21.9968263 127.316989,21.0187501 127.316989,19.9617189 C127.316989,18.9046878 127.13652,17.9282229 126.775583,17.0323245 C126.414646,16.136426 125.918356,15.3774905 125.286716,14.7555179 C124.655075,14.1335453 123.899362,13.6469241 123.019577,13.2956547 C122.139792,12.9443852 121.187497,12.7687504 120.162693,12.7687504 Z M24.1404295,12.7687504 C23.2380858,12.7687504 22.4018065,12.8912114 21.6315916,13.1361332 C20.8613768,13.381055 20.1942869,13.7242679 19.6303222,14.1657718 C19.0663574,14.6072758 18.582959,15.1277347 18.1801269,15.7271487 C17.7772948,16.3265628 17.4759766,16.9888186 17.2761718,17.7139163 C17.0763671,18.4390139 16.9764648,19.2043948 16.9764648,20.0100588 C16.9764648,20.9188478 17.1021484,21.7599611 17.3535156,22.5333986 C17.6048828,23.306836 17.9513183,23.9723145 18.3928222,24.529834 C18.8343261,25.0873536 19.3547851,25.5659181 19.9541991,25.9655274 C20.5536132,26.3651367 21.2078124,26.6616211 21.9167967,26.8549805 C22.625781,27.0483398 23.366992,27.1450195 24.1404295,27.1450195 C25.3199216,27.1450195 26.3866208,26.9017089 27.340527,26.4150879 C28.2944333,25.9284669 29.0936519,25.2823242 29.7381832,24.4766602 L27.6982419,22.7267579 C27.2664059,23.2681642 26.741113,23.7000001 26.122363,24.0222657 C25.503613,24.3445313 24.8429686,24.5056641 24.1404295,24.5056641 C23.3154295,24.5056641 22.5790526,24.3139161 21.9312987,23.93042 C21.2835448,23.5469239 20.7808104,23.0135744 20.4230956,22.3303712 C20.0653808,21.6471681 19.8865233,20.8737306 19.8865233,20.0100588 C19.8865233,19.6104495 19.9219726,19.2301759 19.992871,18.8692385 C20.0637694,18.5083011 20.1668944,18.1747561 20.302246,17.8686038 C20.4375975,17.5624514 20.6003416,17.2804691 20.7904784,17.0226565 C20.9806152,16.764844 21.1965331,16.5376467 21.4382323,16.3410647 C21.6799315,16.1444828 21.942578,15.9769045 22.2261717,15.8383304 C22.5097654,15.6997562 22.8126952,15.5950198 23.1349607,15.5241214 C23.4572263,15.453223 23.7923826,15.4177737 24.1404295,15.4177737 C24.8365232,15.4177737 25.4939451,15.5837406 26.112695,15.9156741 C26.731445,16.2476077 27.2599607,16.6778323 27.6982419,17.2063479 L29.7381832,15.4661136 C29.2418942,14.853809 28.6730953,14.3414066 28.0317868,13.9289066 C27.3904783,13.5164066 26.7475584,13.2199223 26.1030271,13.0394535 C25.4584958,12.8589847 24.8042967,12.7687504 24.1404295,12.7687504 Z M34.6978511,12.9331058 L31.9134761,12.9331058 L31.9134761,27 L40.9530267,27 L40.9530267,24.5153321 L34.6978511,24.5153321 L34.6978511,12.9331058 Z M79.4412093,12.9331058 L70.4499986,12.9331058 L70.4499986,27 L79.8569319,27 L79.8569319,24.5153321 L73.1957016,24.5153321 L73.1957016,21.2572267 L78.2037093,21.2572267 L78.2037093,18.8015627 L73.1957016,18.8015627 L73.1957016,15.4274417 L79.4412093,15.4274417 L79.4412093,12.9331058 Z M86.9822247,12.9331058 L82.3319318,12.9331058 L82.3319318,27 L87.0402325,27 C88.1552715,27 89.1671856,26.8291992 90.0759746,26.4875977 C90.9847636,26.1459962 91.7469218,25.6674317 92.3624491,25.0519043 C92.9779765,24.436377 93.451707,23.6967774 93.7836405,22.8331056 C94.1155741,21.9694338 94.2815409,21.0219729 94.2815409,19.9907228 C94.2815409,18.9594728 94.1091288,18.0071779 93.7643046,17.1338382 C93.4194803,16.2604984 92.9328593,15.5160648 92.3044413,14.9005374 C91.6760234,14.2850101 90.9058085,13.803223 89.9937969,13.4551761 C89.0817852,13.1071293 88.0779277,12.9331058 86.9822247,12.9331058 Z M139.160251,12.9331058 L129.830661,12.9331058 L129.830661,27 L132.576364,27 L132.576364,21.6729494 L138.06777,21.6729494 L138.06777,19.1882815 L132.576364,19.1882815 L132.576364,15.4274417 L139.160251,15.4274417 L139.160251,12.9331058 Z M146.855954,12.9331058 L144.168258,12.9331058 L138.957223,27 L141.867282,27 L142.824411,24.1866212 L148.219137,24.1866212 L149.176266,27 L152.086325,27 L146.855954,12.9331058 Z M49.2384757,15.3694339 C50.0376945,15.3694339 50.7611807,15.5660159 51.4089346,15.95918 C52.0566885,16.3523441 52.5658682,16.9001955 52.9364736,17.6027346 C53.307079,18.3052737 53.4923818,19.0916018 53.4923818,19.9617189 C53.4923818,20.6126954 53.3844228,21.2250002 53.1685049,21.798633 C52.952587,22.3722657 52.6561025,22.8621095 52.2790518,23.2681642 C51.902001,23.6742188 51.4508291,23.9932618 50.9255362,24.225293 C50.4002433,24.4573243 49.8378897,24.5733399 49.2384757,24.5733399 C48.4134758,24.5733399 47.6722648,24.36709 47.0148429,23.9545899 C46.3574211,23.5420899 45.8498527,22.9861817 45.4921379,22.2868654 C45.1344231,21.587549 44.9555656,20.8125002 44.9555656,19.9617189 C44.9555656,19.1173831 45.1344231,18.3455568 45.4921379,17.6462405 C45.8498527,16.9469241 46.3574211,16.3926272 47.0148429,15.9833499 C47.6722648,15.5740726 48.4134758,15.3694339 49.2384757,15.3694339 Z M120.172361,15.3694339 C120.971579,15.3694339 121.695066,15.5660159 122.342819,15.95918 C122.990573,16.3523441 123.499753,16.9001955 123.870358,17.6027346 C124.240964,18.3052737 124.426267,19.0916018 124.426267,19.9617189 C124.426267,20.6126954 124.318308,21.2250002 124.10239,21.798633 C123.886472,22.3722657 123.589987,22.8621095 123.212937,23.2681642 C122.835886,23.6742188 122.384714,23.9932618 121.859421,24.225293 C121.334128,24.4573243 120.771775,24.5733399 120.172361,24.5733399 C119.347361,24.5733399 118.60615,24.36709 117.948728,23.9545899 C117.291306,23.5420899 116.783738,22.9861817 116.426023,22.2868654 C116.068308,21.587549 115.88945,20.8125002 115.88945,19.9617189 C115.88945,19.1173831 116.068308,18.3455568 116.426023,17.6462405 C116.783738,16.9469241 117.291306,16.3926272 117.948728,15.9833499 C118.60615,15.5740726 119.347361,15.3694339 120.172361,15.3694339 Z M87.0402325,15.4274417 C87.8716778,15.4274417 88.619334,15.6224125 89.2832012,16.0123538 C89.9470684,16.4022952 90.4643047,16.9453128 90.8349101,17.6414065 C91.2055155,18.3375002 91.3908183,19.1206057 91.3908183,19.9907228 C91.3908183,20.6288088 91.2828593,21.2250002 91.0669414,21.779297 C90.8510235,22.3335938 90.5480937,22.8121583 90.1581523,23.2149903 C89.768211,23.6178224 89.2896465,23.935254 88.722459,24.1672852 C88.1552715,24.3993165 87.5365215,24.5153321 86.8662091,24.5153321 L85.0776349,24.5153321 L85.0776349,15.4274417 L87.0402325,15.4274417 Z M145.521774,16.2878909 L147.407028,21.8083009 L143.626852,21.8083009 L145.502438,16.2878909 L145.521774,16.2878909 Z" id="Combined-Shape" fill="#FFFFFF"></path>
    </g>
</svg>