<?xml version="1.0" encoding="UTF-8"?>
<svg width="167px" height="39px" viewBox="0 0 167 39" version="1.1" xmlns="http://www.w3.org/2000/svg" xmlns:xlink="http://www.w3.org/1999/xlink">
    <!-- Generator: Sketch 59.1 (86144) - https://sketch.com -->
    <title>Mobile/CTA/Closed Sofa Non selec</title>
    <desc>Created with Sketch.</desc>
    <g id="Mobile/CTA/Closed-Sofa-Non-selec" stroke="none" stroke-width="1" fill="none" fill-rule="evenodd">
        <rect id="Rectangle-Copy" stroke="#FFFFFF" stroke-width="3.68459983" x="0" y="0" width="167" height="39" rx="19.5"></rect>
        <path d="M23.1404295,27.1450195 C24.3199216,27.1450195 25.3866208,26.9017089 26.340527,26.4150879 C27.2944333,25.9284669 28.0936519,25.2823242 28.7381832,24.4766602 L26.6982419,22.7267579 C26.2664059,23.2681642 25.741113,23.7000001 25.122363,24.0222657 C24.503613,24.3445313 23.8429686,24.5056641 23.1404295,24.5056641 C22.3154295,24.5056641 21.5790526,24.3139161 20.9312987,23.93042 C20.2835448,23.5469239 19.7808104,23.0135744 19.4230956,22.3303712 C19.0653808,21.6471681 18.8865233,20.8737306 18.8865233,20.0100588 C18.8865233,19.6104495 18.9219726,19.2301759 18.992871,18.8692385 C19.0637694,18.5083011 19.1668944,18.1747561 19.302246,17.8686038 C19.4375975,17.5624514 19.6003416,17.2804691 19.7904784,17.0226565 C19.9806152,16.764844 20.1965331,16.5376467 20.4382323,16.3410647 C20.6799315,16.1444828 20.942578,15.9769045 21.2261717,15.8383304 C21.5097654,15.6997562 21.8126952,15.5950198 22.1349607,15.5241214 C22.4572263,15.453223 22.7923826,15.4177737 23.1404295,15.4177737 C23.8365232,15.4177737 24.4939451,15.5837406 25.112695,15.9156741 C25.731445,16.2476077 26.2599607,16.6778323 26.6982419,17.2063479 L28.7381832,15.4661136 C28.2418942,14.853809 27.6730953,14.3414066 27.0317868,13.9289066 C26.3904783,13.5164066 25.7475584,13.2199223 25.1030271,13.0394535 C24.4584958,12.8589847 23.8042967,12.7687504 23.1404295,12.7687504 C22.2380858,12.7687504 21.4018065,12.8912114 20.6315916,13.1361332 C19.8613768,13.381055 19.1942869,13.7242679 18.6303222,14.1657718 C18.0663574,14.6072758 17.582959,15.1277347 17.1801269,15.7271487 C16.7772948,16.3265628 16.4759766,16.9888186 16.2761718,17.7139163 C16.0763671,18.4390139 15.9764648,19.2043948 15.9764648,20.0100588 C15.9764648,20.9188478 16.1021484,21.7599611 16.3535156,22.5333986 C16.6048828,23.306836 16.9513183,23.9723145 17.3928222,24.529834 C17.8343261,25.0873536 18.3547851,25.5659181 18.9541991,25.9655274 C19.5536132,26.3651367 20.2078124,26.6616211 20.9167967,26.8549805 C21.625781,27.0483398 22.366992,27.1450195 23.1404295,27.1450195 Z M30.9134761,27 L39.9530267,27 L39.9530267,24.5153321 L33.6978511,24.5153321 L33.6978511,12.9331058 L30.9134761,12.9331058 L30.9134761,27 Z M48.2288077,27.1643555 C49.2536124,27.1643555 50.2059073,26.9887207 51.0856924,26.6374512 C51.9654775,26.2861817 52.7211905,25.7995605 53.352831,25.1775879 C53.9844716,24.5556153 54.4807607,23.7950684 54.8416982,22.8959474 C55.2026356,21.9968263 55.3831044,21.0187501 55.3831044,19.9617189 C55.3831044,18.9046878 55.2026356,17.9282229 54.8416982,17.0323245 C54.4807607,16.136426 53.9844716,15.3774905 53.352831,14.7555179 C52.7211905,14.1335453 51.9654775,13.6469241 51.0856924,13.2956547 C50.2059073,12.9443852 49.2536124,12.7687504 48.2288077,12.7687504 C47.1846671,12.7687504 46.2146477,12.9492192 45.3187492,13.3101566 C44.4228507,13.6710941 43.6639152,14.1673832 43.0419426,14.7990238 C42.41997,15.4306643 41.9333488,16.1912112 41.5820794,17.0806643 C41.2308099,17.9701174 41.0551751,18.9304689 41.0551751,19.9617189 C41.0551751,20.992969 41.2308099,21.9549318 41.5820794,22.8476075 C41.9333488,23.7402832 42.41997,24.5024415 43.0419426,25.1340821 C43.6639152,25.7657226 44.4212395,26.2620118 45.3139152,26.6229492 C46.2065909,26.9838867 47.1782218,27.1643555 48.2288077,27.1643555 Z M48.2384757,24.5733399 C47.4134758,24.5733399 46.6722648,24.36709 46.0148429,23.9545899 C45.3574211,23.5420899 44.8498527,22.9861817 44.4921379,22.2868654 C44.1344231,21.587549 43.9555656,20.8125002 43.9555656,19.9617189 C43.9555656,19.1173831 44.1344231,18.3455568 44.4921379,17.6462405 C44.8498527,16.9469241 45.3574211,16.3926272 46.0148429,15.9833499 C46.6722648,15.5740726 47.4134758,15.3694339 48.2384757,15.3694339 C49.0376945,15.3694339 49.7611807,15.5660159 50.4089346,15.95918 C51.0566885,16.3523441 51.5658682,16.9001955 51.9364736,17.6027346 C52.307079,18.3052737 52.4923818,19.0916018 52.4923818,19.9617189 C52.4923818,20.6126954 52.3844228,21.2250002 52.1685049,21.798633 C51.952587,22.3722657 51.6561025,22.8621095 51.2790518,23.2681642 C50.902001,23.6742188 50.4508291,23.9932618 49.9255362,24.225293 C49.4002433,24.4573243 48.8378897,24.5733399 48.2384757,24.5733399 Z M62.1216784,27.1643555 C62.5986315,27.1643555 63.0659167,27.1144042 63.5235339,27.014502 C63.981151,26.9145997 64.4274889,26.7502442 64.8625475,26.5214356 C65.2976061,26.2926269 65.6794908,26.0154786 66.0082018,25.6899903 C66.3369127,25.3645019 66.6011705,24.9552247 66.8009752,24.4621583 C67.0007799,23.9690919 67.1006822,23.4260743 67.1006822,22.8331056 C67.1006822,22.2530275 67.0104479,21.7438477 66.8299791,21.3055666 C66.53994,20.6030275 65.9566393,20.0132814 65.0800768,19.5363283 L64.8764202,19.4322118 C64.5287166,19.2626505 63.9910288,19.0328503 63.2633568,18.7428112 L62.1705983,18.3113967 C62.0599968,18.2662795 61.9615124,18.2250295 61.8751452,18.1876467 C61.6592273,18.0941896 61.4433093,17.987842 61.2273914,17.8686038 C61.0114734,17.7493655 60.8487292,17.6333499 60.7391589,17.5205569 C60.6295887,17.4077639 60.542577,17.2804691 60.4781238,17.1386721 C60.4136706,16.9968752 60.3814441,16.8389651 60.3814441,16.6649417 C60.3878895,16.2266605 60.547411,15.8818362 60.8600086,15.6304691 C61.1726061,15.3791019 61.5770496,15.2534183 62.0733386,15.2534183 C62.988573,15.2534183 64.0101549,15.7142582 65.1380846,16.6359378 L66.7429674,14.5379886 C65.2863267,13.3391605 63.7072253,12.7494144 62.0056628,12.7687504 C61.1742175,12.781641 60.4136706,12.9637211 59.7240223,13.3149906 C59.0343739,13.6662601 58.4897449,14.1480473 58.0901356,14.7603519 C57.6905263,15.3726565 57.4907215,16.0494143 57.4907215,16.7906253 C57.4907215,17.1580081 57.5342274,17.5044436 57.6212391,17.8299319 C57.7082508,18.1554202 57.8210438,18.4422365 57.959618,18.6903811 C58.0981922,18.9385257 58.278661,19.1737795 58.5010242,19.3961428 C58.7233875,19.6185061 58.9473622,19.8086428 59.172948,19.9665529 C59.3985339,20.124463 59.6660144,20.2823733 59.9753894,20.4402834 C60.2847644,20.5981935 60.5715809,20.7287111 60.8358386,20.8318361 L61.4956775,21.080182 C61.5762439,21.1095888 61.6592273,21.1395998 61.7446277,21.170215 L62.1653776,21.3163946 C62.3579636,21.3852306 62.5238659,21.4476857 62.6630847,21.5037599 C62.8951159,21.597217 63.1190906,21.7035646 63.3350085,21.8228029 C63.5509264,21.9420411 63.7152819,22.0628907 63.8280749,22.1853517 C63.9408679,22.3078127 64.0294908,22.4496094 64.093944,22.6107423 C64.1583972,22.7718752 64.1906237,22.9555666 64.1906237,23.1618165 C64.1906237,23.4583009 64.1165026,23.7161133 63.9682604,23.935254 C63.8200183,24.1543947 63.592821,24.3284181 63.2866686,24.4573243 C62.9805163,24.5862305 62.6082995,24.6506837 62.1700183,24.6506837 C61.8864246,24.6506837 61.5963855,24.6152344 61.2999011,24.544336 C61.0034167,24.4734376 60.7053211,24.36709 60.405614,24.225293 C60.105907,24.0834961 59.8062,23.8998047 59.506493,23.6742188 C59.2067859,23.448633 58.9280262,23.1875978 58.6702137,22.8911134 L56.9976551,24.9503907 C57.7195302,25.6916016 58.5203602,26.2458985 59.4001453,26.6132813 C60.2799304,26.9806641 61.1871081,27.1643555 62.1216784,27.1643555 Z M69.4499986,27 L78.8569319,27 L78.8569319,24.5153321 L72.1957016,24.5153321 L72.1957016,21.2572267 L77.2037093,21.2572267 L77.2037093,18.8015627 L72.1957016,18.8015627 L72.1957016,15.4274417 L78.4412093,15.4274417 L78.4412093,12.9331058 L69.4499986,12.9331058 L69.4499986,27 Z M81.3319318,27 L86.0402325,27 C87.1552715,27 88.1671856,26.8291992 89.0759746,26.4875977 C89.9847636,26.1459962 90.7469218,25.6674317 91.3624491,25.0519043 C91.9779765,24.436377 92.451707,23.6967774 92.7836405,22.8331056 C93.1155741,21.9694338 93.2815409,21.0219729 93.2815409,19.9907228 C93.2815409,18.9594728 93.1091288,18.0071779 92.7643046,17.1338382 C92.4194803,16.2604984 91.9328593,15.5160648 91.3044413,14.9005374 C90.6760234,14.2850101 89.9058085,13.803223 88.9937969,13.4551761 C88.0817852,13.1071293 87.0779277,12.9331058 85.9822247,12.9331058 L81.3319318,12.9331058 L81.3319318,27 Z M84.0776349,24.5153321 L84.0776349,15.4274417 L86.0402325,15.4274417 C86.8716778,15.4274417 87.619334,15.6224125 88.2832012,16.0123538 C88.9470684,16.4022952 89.4643047,16.9453128 89.8349101,17.6414065 C90.2055155,18.3375002 90.3908183,19.1206057 90.3908183,19.9907228 C90.3908183,20.6288088 90.2828593,21.2250002 90.0669414,21.779297 C89.8510235,22.3335938 89.5480937,22.8121583 89.1581523,23.2149903 C88.768211,23.6178224 88.2896465,23.935254 87.722459,24.1672852 C87.1552715,24.3993165 86.5365215,24.5153321 85.8662091,24.5153321 L84.0776349,24.5153321 Z M105.23115,27.1643555 C105.708103,27.1643555 106.175388,27.1144042 106.633005,27.014502 C107.090623,26.9145997 107.53696,26.7502442 107.972019,26.5214356 C108.407078,26.2926269 108.788962,26.0154786 109.117673,25.6899903 C109.446384,25.3645019 109.710642,24.9552247 109.910447,24.4621583 C110.110251,23.9690919 110.210154,23.4260743 110.210154,22.8331056 C110.210154,22.2530275 110.119919,21.7438477 109.939451,21.3055666 C109.649412,20.6030275 109.066111,20.0132814 108.189548,19.5363283 L107.985892,19.4322118 C107.599554,19.2438103 106.978669,18.9810398 106.123235,18.6439005 L105.28007,18.3113967 C105.169468,18.2662795 105.070984,18.2250295 104.984617,18.1876467 C104.768699,18.0941896 104.552781,17.987842 104.336863,17.8686038 C104.120945,17.7493655 103.958201,17.6333499 103.84863,17.5205569 C103.73906,17.4077639 103.652048,17.2804691 103.587595,17.1386721 C103.523142,16.9968752 103.490916,16.8389651 103.490916,16.6649417 C103.497361,16.2266605 103.656882,15.8818362 103.96948,15.6304691 C104.282078,15.3791019 104.686521,15.2534183 105.18281,15.2534183 C106.098045,15.2534183 107.119626,15.7142582 108.247556,16.6359378 L109.852439,14.5379886 C108.395798,13.3391605 106.816697,12.7494144 105.115134,12.7687504 C104.283689,12.781641 103.523142,12.9637211 102.833494,13.3149906 C102.143845,13.6662601 101.599216,14.1480473 101.199607,14.7603519 C100.799998,15.3726565 100.600193,16.0494143 100.600193,16.7906253 C100.600193,17.1580081 100.643699,17.5044436 100.730711,17.8299319 C100.817722,18.1554202 100.930515,18.4422365 101.06909,18.6903811 C101.207664,18.9385257 101.388132,19.1737795 101.610496,19.3961428 C101.832859,19.6185061 102.056834,19.8086428 102.28242,19.9665529 C102.508005,20.124463 102.775486,20.2823733 103.084861,20.4402834 C103.394236,20.5981935 103.681052,20.7287111 103.94531,20.8318361 L104.370701,20.9937746 C104.522166,21.050171 104.683298,21.1089845 104.854099,21.170215 L105.274849,21.3163946 C105.467435,21.3852306 105.633337,21.4476857 105.772556,21.5037599 C106.004587,21.597217 106.228562,21.7035646 106.44448,21.8228029 C106.660398,21.9420411 106.824753,22.0628907 106.937546,22.1853517 C107.050339,22.3078127 107.138962,22.4496094 107.203416,22.6107423 C107.267869,22.7718752 107.300095,22.9555666 107.300095,23.1618165 C107.300095,23.4583009 107.225974,23.7161133 107.077732,23.935254 C106.92949,24.1543947 106.702293,24.3284181 106.39614,24.4573243 C106.089988,24.5862305 105.717771,24.6506837 105.27949,24.6506837 C104.995896,24.6506837 104.705857,24.6152344 104.409373,24.544336 C104.112888,24.4734376 103.814793,24.36709 103.515086,24.225293 C103.215379,24.0834961 102.915671,23.8998047 102.615964,23.6742188 C102.316257,23.448633 102.037498,23.1875978 101.779685,22.8911134 L100.107127,24.9503907 C100.829002,25.6916016 101.629832,26.2458985 102.509617,26.6132813 C103.389402,26.9806641 104.29658,27.1643555 105.23115,27.1643555 Z M119.162693,27.1643555 C120.187497,27.1643555 121.139792,26.9887207 122.019577,26.6374512 C122.899362,26.2861817 123.655075,25.7995605 124.286716,25.1775879 C124.918356,24.5556153 125.414646,23.7950684 125.775583,22.8959474 C126.13652,21.9968263 126.316989,21.0187501 126.316989,19.9617189 C126.316989,18.9046878 126.13652,17.9282229 125.775583,17.0323245 C125.414646,16.136426 124.918356,15.3774905 124.286716,14.7555179 C123.655075,14.1335453 122.899362,13.6469241 122.019577,13.2956547 C121.139792,12.9443852 120.187497,12.7687504 119.162693,12.7687504 C118.118552,12.7687504 117.148532,12.9492192 116.252634,13.3101566 C115.356736,13.6710941 114.5978,14.1673832 113.975827,14.7990238 C113.353855,15.4306643 112.867234,16.1912112 112.515964,17.0806643 C112.164695,17.9701174 111.98906,18.9304689 111.98906,19.9617189 C111.98906,20.992969 112.164695,21.9549318 112.515964,22.8476075 C112.867234,23.7402832 113.353855,24.5024415 113.975827,25.1340821 C114.5978,25.7657226 115.355124,26.2620118 116.2478,26.6229492 C117.140476,26.9838867 118.112107,27.1643555 119.162693,27.1643555 Z M119.172361,24.5733399 C118.347361,24.5733399 117.60615,24.36709 116.948728,23.9545899 C116.291306,23.5420899 115.783738,22.9861817 115.426023,22.2868654 C115.068308,21.587549 114.88945,20.8125002 114.88945,19.9617189 C114.88945,19.1173831 115.068308,18.3455568 115.426023,17.6462405 C115.783738,16.9469241 116.291306,16.3926272 116.948728,15.9833499 C117.60615,15.5740726 118.347361,15.3694339 119.172361,15.3694339 C119.971579,15.3694339 120.695066,15.5660159 121.342819,15.95918 C121.990573,16.3523441 122.499753,16.9001955 122.870358,17.6027346 C123.240964,18.3052737 123.426267,19.0916018 123.426267,19.9617189 C123.426267,20.6126954 123.318308,21.2250002 123.10239,21.798633 C122.886472,22.3722657 122.589987,22.8621095 122.212937,23.2681642 C121.835886,23.6742188 121.384714,23.9932618 120.859421,24.225293 C120.334128,24.4573243 119.771775,24.5733399 119.172361,24.5733399 Z M128.830661,27 L131.576364,27 L131.576364,21.6729494 L137.06777,21.6729494 L137.06777,19.1882815 L131.576364,19.1882815 L131.576364,15.4274417 L138.160251,15.4274417 L138.160251,12.9331058 L128.830661,12.9331058 L128.830661,27 Z M148.176266,27 L151.086325,27 L145.855954,12.9331058 L143.168258,12.9331058 L137.957223,27 L140.867282,27 L141.824411,24.1866212 L147.219137,24.1866212 L148.176266,27 Z M142.626852,21.8083009 L144.502438,16.2878909 L144.521774,16.2878909 L146.407028,21.8083009 L142.626852,21.8083009 Z" id="CLOSEDSOFA" fill="#FFFFFF" fill-rule="nonzero"></path>
    </g>
</svg>