<?xml version="1.0" encoding="UTF-8"?>
<svg width="167px" height="39px" viewBox="0 0 167 39" version="1.1" xmlns="http://www.w3.org/2000/svg" xmlns:xlink="http://www.w3.org/1999/xlink">
    <!-- Generator: Sketch 59.1 (86144) - https://sketch.com -->
    <title>Mobile/CTA/Open Sofa Selec</title>
    <desc>Created with Sketch.</desc>
    <g id="Mobile/CTA/Open-Sofa-Selec" stroke="none" stroke-width="1" fill="none" fill-rule="evenodd">
        <path d="M147.5,0 C158.269553,-1.97833472e-15 167,8.73044738 167,19.5 C167,30.2695526 158.269553,39 147.5,39 L19.5,39 C8.73044738,39 -5.5524529e-14,30.2695526 -5.68434189e-14,19.5 C-5.81623087e-14,8.73044738 8.73044738,1.97833472e-15 19.5,0 L147.5,0 Z M29.0449219,12.1875 C27.8847656,12.1875 26.8069662,12.3880209 25.8115234,12.7890625 C24.8160807,13.1901041 23.972819,13.7415365 23.2817383,14.4433594 C22.5906576,15.1451822 22.0499674,15.9902344 21.659668,16.9785156 C21.2693685,17.9667969 21.0742188,19.0338541 21.0742188,20.1796875 C21.0742188,21.3255209 21.2693685,22.3943685 21.659668,23.3862305 C22.0499674,24.3780924 22.5906576,25.224935 23.2817383,25.9267578 C23.972819,26.6285807 24.8142904,27.1800131 25.8061523,27.5810547 C26.7980143,27.9820963 27.8776041,28.1826172 29.0449219,28.1826172 C30.1835938,28.1826172 31.2416992,27.9874674 32.2192383,27.597168 C33.1967773,27.2068685 34.0364584,26.6661783 34.7382812,25.9750977 C35.4401041,25.284017 35.9915365,24.4389648 36.3925781,23.4399414 C36.7936197,22.440918 36.9941406,21.3541666 36.9941406,20.1796875 C36.9941406,19.0052084 36.7936197,17.9202475 36.3925781,16.9248047 C35.9915365,15.9293619 35.4401041,15.0861002 34.7382812,14.3950195 C34.0364584,13.7039389 33.1967773,13.1632486 32.2192383,12.7729492 C31.2416992,12.3826498 30.1835938,12.1875 29.0449219,12.1875 Z M93.6699219,12.1875 C92.7460938,12.2018229 91.9010416,12.4041342 91.1347656,12.7944336 C90.3684896,13.184733 89.7633463,13.7200521 89.3193359,14.4003906 C88.8753256,15.0807291 88.6533203,15.8326822 88.6533203,16.65625 C88.6533203,17.0644531 88.7016602,17.4493815 88.7983398,17.8110352 C88.8950195,18.1726889 89.0203451,18.4913736 89.1743164,18.7670898 C89.3282877,19.042806 89.5288086,19.3041992 89.7758789,19.5512695 C90.0229492,19.7983398 90.27181,20.0096029 90.5224609,20.1850586 C90.7731119,20.3605143 91.0703125,20.5359701 91.4140625,20.7114258 C91.7578125,20.8868815 92.0764975,21.031901 92.3701172,21.1464844 C92.6637369,21.2610678 93.0003256,21.3863932 93.3798828,21.5224609 C93.8024088,21.66569 94.1425781,21.7892252 94.4003906,21.8930664 C94.6582031,21.9969076 94.9070639,22.1150717 95.1469727,22.2475586 C95.3868815,22.3800455 95.5694986,22.5143229 95.6948242,22.6503906 C95.8201498,22.7864584 95.9186197,22.9440104 95.9902344,23.1230469 C96.061849,23.3020834 96.0976562,23.506185 96.0976562,23.7353516 C96.0976562,24.0647787 96.0152994,24.3512369 95.8505859,24.5947266 C95.6858725,24.8382162 95.433431,25.0315756 95.0932617,25.1748047 C94.7530924,25.3180338 94.3395182,25.3896484 93.8525391,25.3896484 C93.537435,25.3896484 93.2151693,25.3502604 92.8857422,25.2714844 C92.556315,25.1927084 92.2250977,25.0745443 91.8920898,24.9169922 C91.559082,24.75944 91.2260742,24.5553385 90.8930664,24.3046875 C90.5600586,24.0540365 90.2503256,23.7639975 89.9638672,23.4345703 L88.1054688,25.7226562 C88.9075521,26.546224 89.7973633,27.1621094 90.7749023,27.5703125 C91.7524414,27.9785156 92.7604166,28.1826172 93.7988281,28.1826172 C94.328776,28.1826172 94.8479818,28.1271158 95.3564453,28.0161133 C95.8649088,27.9051107 96.3608398,27.7224935 96.8442383,27.4682617 C97.3276367,27.2140299 97.7519531,26.9060873 98.1171875,26.5444336 C98.4824219,26.1827799 98.7760416,25.7280273 98.9980469,25.1801758 C99.2200521,24.6323242 99.3310547,24.0289713 99.3310547,23.3701172 C99.3310547,22.7255859 99.2307943,22.1598307 99.0302734,21.6728516 C98.7080078,20.8922525 98.0598959,20.2369791 97.0859375,19.7070312 C96.6634115,19.4778646 95.8004557,19.1090494 94.4970703,18.6005859 C94.0888672,18.4430338 93.7648111,18.3123373 93.5249023,18.2084961 C93.2849935,18.1046549 93.0450846,17.9864908 92.8051758,17.8540039 C92.565267,17.721517 92.38444,17.5926107 92.2626953,17.4672852 C92.1409506,17.3419596 92.0442709,17.2005209 91.9726562,17.0429688 C91.9010416,16.8854166 91.8652344,16.7099609 91.8652344,16.5166016 C91.8723959,16.0296225 92.049642,15.6464844 92.3969727,15.3671875 C92.7443033,15.0878906 93.193685,14.9482422 93.7451172,14.9482422 C94.7620443,14.9482422 95.8971354,15.4602865 97.1503906,16.484375 L98.9335938,14.1533203 C97.3151041,12.8212891 95.5605469,12.1660156 93.6699219,12.1875 Z M109.27832,12.1875 C108.118164,12.1875 107.040365,12.3880209 106.044922,12.7890625 C105.049479,13.1901041 104.206217,13.7415365 103.515137,14.4433594 C102.824056,15.1451822 102.283366,15.9902344 101.893066,16.9785156 C101.502767,17.9667969 101.307617,19.0338541 101.307617,20.1796875 C101.307617,21.3255209 101.502767,22.3943685 101.893066,23.3862305 C102.283366,24.3780924 102.824056,25.224935 103.515137,25.9267578 C104.206217,26.6285807 105.047689,27.1800131 106.039551,27.5810547 C107.031413,27.9820963 108.111003,28.1826172 109.27832,28.1826172 C110.416992,28.1826172 111.475098,27.9874674 112.452637,27.597168 C113.430176,27.2068685 114.269857,26.6661783 114.97168,25.9750977 C115.673503,25.284017 116.224935,24.4389648 116.625977,23.4399414 C117.027018,22.440918 117.227539,21.3541666 117.227539,20.1796875 C117.227539,19.0052084 117.027018,17.9202475 116.625977,16.9248047 C116.224935,15.9293619 115.673503,15.0861002 114.97168,14.3950195 C114.269857,13.7039389 113.430176,13.1632486 112.452637,12.7729492 C111.475098,12.3826498 110.416992,12.1875 109.27832,12.1875 Z M45.5664062,12.3701172 L39.7871094,12.3701172 L39.7871094,28 L42.8378906,28 L42.8378906,22.6503906 L45.2763672,22.6503906 C46.1429037,22.6503906 46.925293,22.5465494 47.6235352,22.3388672 C48.3217773,22.131185 48.9233398,21.8196615 49.4282227,21.4042969 C49.9331055,20.9889322 50.3216146,20.4589844 50.59375,19.8144531 C50.8658854,19.1699219 51.0019531,18.4251303 51.0019531,17.5800781 C51.0019531,16.8138021 50.8945312,16.1191406 50.6796875,15.4960938 C50.4648438,14.8730469 50.1425781,14.3251953 49.7128906,13.8525391 C49.2832031,13.3798828 48.7156576,13.0146484 48.0102539,12.7568359 C47.3048502,12.4990234 46.4902344,12.3701172 45.5664062,12.3701172 Z M63.4951172,12.3701172 L53.5048828,12.3701172 L53.5048828,28 L63.9570312,28 L63.9570312,25.2392578 L56.5556641,25.2392578 L56.5556641,21.6191406 L62.1201172,21.6191406 L62.1201172,18.890625 L56.5556641,18.890625 L56.5556641,15.1416016 L63.4951172,15.1416016 L63.4951172,12.3701172 Z M69.7900391,12.3701172 L66.7070312,12.3701172 L66.7070312,28 L69.7900391,28 L69.7900391,17.6445312 L69.8330078,17.6445312 L76.7080078,28 L79.8769531,28 L79.8769531,12.3701172 L76.7832031,12.3701172 L76.7832031,22.9296875 L76.7402344,22.9296875 L69.7900391,12.3701172 Z M130.386719,12.3701172 L120.020508,12.3701172 L120.020508,28 L123.071289,28 L123.071289,22.0810547 L129.172852,22.0810547 L129.172852,19.3203125 L123.071289,19.3203125 L123.071289,15.1416016 L130.386719,15.1416016 L130.386719,12.3701172 Z M138.9375,12.3701172 L135.951172,12.3701172 L130.161133,28 L133.394531,28 L134.458008,24.8740234 L140.452148,24.8740234 L141.515625,28 L144.749023,28 L138.9375,12.3701172 Z M29.0556641,15.0771484 C29.943685,15.0771484 30.7475586,15.2955729 31.4672852,15.7324219 C32.1870117,16.1692709 32.752767,16.7779947 33.1645508,17.5585938 C33.5763346,18.3391928 33.7822266,19.2128906 33.7822266,20.1796875 C33.7822266,20.9029947 33.6622721,21.5833334 33.4223633,22.2207031 C33.1824545,22.8580729 32.8530273,23.4023438 32.434082,23.8535156 C32.0151367,24.3046875 31.5138346,24.6591797 30.9301758,24.9169922 C30.346517,25.1748047 29.7216797,25.3037109 29.0556641,25.3037109 C28.1389975,25.3037109 27.3154297,25.0745443 26.5849609,24.6162109 C25.8544922,24.1578775 25.2905273,23.5402018 24.8930664,22.7631836 C24.4956055,21.9861654 24.296875,21.125 24.296875,20.1796875 C24.296875,19.2415365 24.4956055,18.3839518 24.8930664,17.6069336 C25.2905273,16.8299154 25.8544922,16.2140299 26.5849609,15.7592773 C27.3154297,15.3045248 28.1389975,15.0771484 29.0556641,15.0771484 Z M109.289062,15.0771484 C110.177083,15.0771484 110.980957,15.2955729 111.700684,15.7324219 C112.42041,16.1692709 112.986165,16.7779947 113.397949,17.5585938 C113.809733,18.3391928 114.015625,19.2128906 114.015625,20.1796875 C114.015625,20.9029947 113.895671,21.5833334 113.655762,22.2207031 C113.415853,22.8580729 113.086426,23.4023438 112.66748,23.8535156 C112.248535,24.3046875 111.747233,24.6591797 111.163574,24.9169922 C110.579915,25.1748047 109.955078,25.3037109 109.289062,25.3037109 C108.372396,25.3037109 107.548828,25.0745443 106.818359,24.6162109 C106.087891,24.1578775 105.523926,23.5402018 105.126465,22.7631836 C104.729004,21.9861654 104.530273,21.125 104.530273,20.1796875 C104.530273,19.2415365 104.729004,18.3839518 105.126465,17.6069336 C105.523926,16.8299154 106.087891,16.2140299 106.818359,15.7592773 C107.548828,15.3045248 108.372396,15.0771484 109.289062,15.0771484 Z M137.455078,16.0976562 L139.549805,22.2314453 L135.349609,22.2314453 L137.433594,16.0976562 L137.455078,16.0976562 Z M45.0185547,15.1201172 C45.9065756,15.1201172 46.5922852,15.3349609 47.0756836,15.7646484 C47.559082,16.1943359 47.8007812,16.7779947 47.8007812,17.515625 C47.8007812,18.2532553 47.5519205,18.8369141 47.0541992,19.2666016 C46.5564779,19.6962891 45.8349609,19.9111328 44.8896484,19.9111328 L42.8378906,19.9111328 L42.8378906,15.1201172 L45.0185547,15.1201172 Z" id="Combined-Shape" fill="#FFFFFF"></path>
    </g>
</svg>