<?xml version="1.0" encoding="UTF-8"?>
<svg width="167px" height="39px" viewBox="0 0 167 39" version="1.1" xmlns="http://www.w3.org/2000/svg" xmlns:xlink="http://www.w3.org/1999/xlink">
    <!-- Generator: Sketch 59.1 (86144) - https://sketch.com -->
    <title>Mobile/CTA/Buy</title>
    <desc>Created with Sketch.</desc>
    <g id="Mobile/CTA/Buy" stroke="none" stroke-width="1" fill="none" fill-rule="evenodd">
        <path d="M147.5,0 C158.269553,-1.97833472e-15 167,8.73044738 167,19.5 C167,30.2695526 158.269553,39 147.5,39 L19.5,39 C8.73044738,39 1.31888981e-15,30.2695526 0,19.5 C-1.31888981e-15,8.73044738 8.73044738,1.97833472e-15 19.5,0 L147.5,0 Z M81.9092769,12.9331058 L79.115234,12.9331058 L79.115234,21.179883 C79.115234,22.1273439 79.2521969,22.9781251 79.5261227,23.7322266 C79.8000484,24.4863282 80.1851559,25.1131348 80.6814449,25.6126465 C81.1777339,26.1121583 81.7755367,26.4956543 82.4748531,26.7631348 C83.1741694,27.0306153 83.9459956,27.1643555 84.7903315,27.1643555 C85.9827142,27.1643555 87.0091303,26.9194336 87.8695795,26.4295899 C88.7300287,25.9397461 89.3842279,25.2468751 89.8321771,24.3509766 C90.2801262,23.4550782 90.5041009,22.398047 90.5041009,21.179883 L90.5041009,12.9331058 L87.719726,12.9331058 L87.719726,20.9961916 C87.719726,22.09834 87.4490228,22.9668458 86.9076166,23.6017091 C86.3662104,24.2365724 85.6604487,24.554004 84.7903315,24.554004 C84.1909175,24.554004 83.6704585,24.3977051 83.2289546,24.0851075 C82.7874507,23.7725099 82.4571285,23.3503419 82.2379878,22.8186036 C82.0188472,22.2868654 81.9092769,21.6793947 81.9092769,20.9961916 L81.9092769,12.9331058 Z M71.6225584,12.9331058 L66.546875,12.9331058 L66.546875,27 L72.366992,27 C73.1210935,27 73.7897947,26.9033203 74.3730955,26.7099609 C74.9563962,26.5166016 75.4333494,26.2458985 75.8039548,25.8978516 C76.1745602,25.5498047 76.4549313,25.1405274 76.6450681,24.6700196 C76.8352048,24.1995117 76.9302731,23.6806642 76.9302731,23.1134767 C76.9302731,22.1917971 76.6853513,21.4231936 76.1955075,20.8076662 C75.7056637,20.1921388 75.00957,19.7715822 74.1072263,19.5459963 L74.1072263,19.5073244 C74.5970701,19.3204104 75.0031248,19.0545413 75.3253904,18.709717 C75.6476559,18.3648928 75.8764646,17.99751 76.0118161,17.6075686 C76.1471677,17.2176273 76.2148435,16.8035158 76.2148435,16.3652347 C76.2148435,15.2501957 75.8232907,14.3994144 75.0401853,13.812891 C74.2570798,13.2263675 73.1178709,12.9331058 71.6225584,12.9331058 Z M95.2510734,12.9331058 L92.0606438,12.9331058 L96.7109367,20.8221681 L96.7109367,27 L99.5243155,27 L99.5243155,20.8221681 L104.203612,12.9331058 L100.984179,12.9331058 L98.151464,18.0667971 L98.1127921,18.0667971 L95.2510734,12.9331058 Z M71.5548826,20.9381838 C72.3605466,20.9381838 72.9744626,21.1009278 73.3966306,21.4264162 C73.8187986,21.7519045 74.0298826,22.1982423 74.0298826,22.7654298 C74.0298826,23.1585939 73.9235349,23.4889161 73.7108396,23.7563966 C73.4981443,24.0238771 73.2064939,24.2236817 72.8358885,24.3558106 C72.4652831,24.4879396 72.0286131,24.554004 71.5258787,24.554004 L69.28291,24.554004 L69.28291,20.9381838 L71.5548826,20.9381838 Z M71.0908202,15.3984378 C71.6193358,15.3984378 72.057617,15.467725 72.4056639,15.6062991 C72.7537107,15.7448733 73.0050779,15.9333987 73.1597654,16.1718753 C73.3144529,16.4103519 73.3917967,16.6971682 73.3917967,17.0323245 C73.3917967,17.4061526 73.290283,17.7203616 73.0872556,17.9749514 C72.8842283,18.2295412 72.6280271,18.4132326 72.3186521,18.5260256 C72.0092772,18.6388186 71.6612303,18.6952151 71.2745116,18.6952151 L69.28291,18.6952151 L69.28291,15.3984378 L71.0908202,15.3984378 Z" id="Combined-Shape"></path>
    </g>
</svg>